<?xml version="1.0" encoding="utf-8"?>
<!-- Generator: Adobe Illustrator 19.0.0, SVG Export Plug-In . SVG Version: 6.00 Build 0)  -->
<svg version="1.1" xmlns="http://www.w3.org/2000/svg" xmlns:xlink="http://www.w3.org/1999/xlink" x="0px" y="0px"
	 viewBox="0 0 1121.9 595.3" style="enable-background:new 0 0 1121.9 595.3;" xml:space="preserve">
<style type="text/css">
	.st0{fill:#C33C3D;stroke:#000000;stroke-miterlimit:10;}
	.st1{fill:#F9FAF8;stroke:#F9FAF8;stroke-width:0.5;stroke-miterlimit:10;}
	.st2{fill:#FFFFFF;}
	.st3{fill:#FAFAFA;}
	.st4{fill:#FEFFFD;}
	.st5{fill:#FEFEFD;}
	.st6{fill:none;stroke:#FAFAFA;stroke-miterlimit:10;}
	.st7{fill:none;stroke:#FFFFFF;stroke-miterlimit:10;}
	.st8{fill:none;stroke:#FDFDFC;stroke-miterlimit:10;}
	.st9{fill:none;stroke:#F7F2EF;stroke-miterlimit:10;}
	.st10{fill:none;stroke:#FFFFFF;stroke-width:2;stroke-miterlimit:10;}
	.st11{fill:#F7F1F1;stroke:#FFFFFF;stroke-miterlimit:10;}
</style>
<g id="BackGround">
	<rect id="XMLID_79_" class="st0" width="1121.9" height="595.3"/>
</g>
<g id="iconos">
	<g id="Capa_5">
		<g id="XMLID_89_">
			<path id="XMLID_95_" class="st1" d="M540.8,180.5h-89c-6,0-10.9,5.5-10.9,12.2v168.5c0,6.7,4.9,12.2,10.9,12.2h89
				c6,0,10.9-5.5,10.9-12.2V192.7C551.7,185.9,546.8,180.5,540.8,180.5z M446.3,211.2h99.9v127.6h-99.9V211.2z M451.8,186.6h89
				c3,0,5.4,2.7,5.4,6.1v14.4h-99.9v-14.4C446.3,189.3,448.8,186.6,451.8,186.6z M540.8,367.3h-89c-3,0-5.4-2.7-5.4-6.1v-18.3h99.9
				v18.3C546.2,364.5,543.8,367.3,540.8,367.3z"/>
			<path id="XMLID_92_" class="st1" d="M496.3,345.5c-4.9,0-8.9,4.5-8.9,10s4,10,8.9,10s8.9-4.5,8.9-10S501.2,345.5,496.3,345.5z
				 M496.3,361.5c-2.9,0-5.3-2.7-5.3-5.9c0-3.3,2.4-5.9,5.3-5.9s5.3,2.7,5.3,5.9C501.6,358.8,499.2,361.5,496.3,361.5z"/>
			<path id="XMLID_81_" class="st1" d="M483.9,199.9h24.7c1,0,1.8-0.9,1.8-2s-0.8-2-1.8-2h-24.7c-1,0-1.8,0.9-1.8,2
				S482.9,199.9,483.9,199.9z"/>
			<path id="XMLID_80_" class="st1" d="M477.3,199.9c0.5,0,0.9-0.2,1.3-0.6c0.3-0.4,0.5-0.9,0.5-1.4s-0.2-1.1-0.5-1.4
				c-0.3-0.4-0.8-0.6-1.3-0.6c-0.5,0-0.9,0.2-1.3,0.6c-0.3,0.4-0.5,0.9-0.5,1.4s0.2,1.1,0.5,1.4
				C476.4,199.7,476.9,199.9,477.3,199.9z"/>
		</g>
	</g>
	<g id="Capa_11">
		<path id="XMLID_110_" class="st2" d="M514.6,260.6l-16-18.2c-0.2-0.3-0.6-0.3-0.8,0l-16,18.2c-0.2,0.2-0.3,0.5-0.2,0.8
			c0.1,0.3,0.3,0.5,0.6,0.5h3.7v23.2c0,0.4,0.3,0.8,0.6,0.8h23.3c0.3,0,0.6-0.3,0.6-0.8v-23.2h3.7c0.3,0,0.5-0.2,0.6-0.5
			C514.8,261.2,514.8,260.8,514.6,260.6L514.6,260.6z M498,253.4c0-0.3,0.2-0.5,0.4-0.5c0.2,0,0.4,0.2,0.4,0.5s-0.2,0.5-0.4,0.5
			C498.2,253.9,498,253.7,498,253.4z M509.8,260.4c-0.3,0-0.6,0.3-0.6,0.8v23.2h-4.8V277l1.7-2.1c0.2,0.1,0.4,0.1,0.6,0.1
			c0.9,0,1.6-0.9,1.6-2c0-1.1-0.7-2-1.6-2s-1.6,0.9-1.6,2c0,0.3,0.1,0.6,0.2,0.9l-1.8,2.3c-0.1,0.1-0.2,0.3-0.2,0.5v7.7h-1.4v-16.2
			l1.1-1.4c0.2,0.1,0.4,0.2,0.7,0.2c0.9,0,1.6-0.9,1.6-2s-0.7-2-1.6-2s-1.6,0.9-1.6,2c0,0.3,0,0.5,0.1,0.8l-1.3,1.7
			c-0.1,0.1-0.2,0.3-0.2,0.5v16.5h-1.4v-29.1c0.6-0.3,1-1,1-1.9c0-1.1-0.7-2-1.6-2s-1.6,0.9-1.6,2c0,0.9,0.4,1.6,1,1.9v29.1h-1.4
			v-20.6c0-0.2-0.1-0.4-0.2-0.5l-1.2-1.5c0.1-0.3,0.2-0.6,0.2-0.9c0-1.1-0.7-2-1.6-2s-1.6,0.9-1.6,2c0,1.1,0.7,2,1.6,2
			c0.2,0,0.4,0,0.5-0.1l1.1,1.4v20.3h-1.4v-11.8c0-0.2-0.1-0.4-0.2-0.5l-1.8-2.3c0.1-0.3,0.2-0.6,0.2-0.9c0-1.1-0.7-2-1.6-2
			s-1.6,0.9-1.6,2s0.7,2,1.6,2c0.2,0,0.4,0,0.6-0.1l1.7,2.1v11.5h-5.4v-23.2c0-0.4-0.3-0.8-0.6-0.8h-2.7l14.4-16.4l14.4,16.4
			L509.8,260.4L509.8,260.4z M506.2,273c0-0.3,0.2-0.5,0.4-0.5s0.4,0.2,0.4,0.5s-0.2,0.5-0.4,0.5S506.2,273.3,506.2,273z
			 M503.1,264.9c0-0.3,0.2-0.5,0.4-0.5c0.2,0,0.4,0.2,0.4,0.5s-0.2,0.5-0.4,0.5C503.3,265.4,503.1,265.2,503.1,264.9z M493.5,261.3
			c-0.2,0-0.4-0.2-0.4-0.5s0.2-0.5,0.4-0.5s0.4,0.2,0.4,0.5S493.7,261.3,493.5,261.3z M490.2,269.4c-0.2,0-0.4-0.2-0.4-0.5
			c0-0.3,0.2-0.5,0.4-0.5s0.4,0.2,0.4,0.5C490.6,269.2,490.4,269.4,490.2,269.4z"/>
	</g>
	<g id="Capa_12">
		<g id="XMLID_117_">
			<path id="XMLID_123_" class="st2" d="M264.7,274.5H231c-0.6,0-1.1,0.5-1.1,1.2v21.9c0,0.7,0.5,1.2,1.1,1.2h33.7
				c0.6,0,1.1-0.5,1.1-1.2v-21.9C265.7,275,265.3,274.5,264.7,274.5L264.7,274.5z M264.8,297.6c0,0.1-0.1,0.2-0.1,0.2H231
				c-0.1,0-0.1-0.1-0.1-0.2v-21.9c0-0.1,0.1-0.2,0.1-0.2h33.7c0.1,0,0.1,0.1,0.1,0.2V297.6z"/>
			<path id="XMLID_118_" class="st2" d="M268.9,299.6h-1.1v-24.5c0-1.6-1.2-2.9-2.7-2.9h-34.7c-1.5,0-2.7,1.3-2.7,2.9v24.5h-1.1
				c-0.4,0-0.7,0.3-0.7,0.8v2.1c0,1.4,1,2.5,2.3,2.5h39.1c1.2,0,2.3-1.1,2.3-2.5v-2.1C269.6,299.9,269.3,299.6,268.9,299.6z
				 M229.2,275.1c0-0.8,0.6-1.4,1.3-1.4h34.7c0.7,0,1.3,0.6,1.3,1.4v24.5h-37.2V275.1L229.2,275.1z M245.8,301.1h4.1v0.4
				c0,0.2-0.1,0.3-0.3,0.3h-3.5c-0.2,0-0.3-0.1-0.3-0.3L245.8,301.1L245.8,301.1z M268.2,302.5c0,0.5-0.4,1-0.9,1h-39.1
				c-0.5,0-0.9-0.4-0.9-1v-1.3h1.1h16.3v0.4c0,0.7,0.6,1.4,1.2,1.4h3.5c0.7,0,1.2-0.6,1.2-1.4v-0.4h16.3h1.1V302.5L268.2,302.5z"/>
		</g>
	</g>
	<g id="Capa_13">
		<g id="XMLID_17_">
			<path id="XMLID_33_" class="st3" d="M285,123.6h-44.8c-1.4,0-2.5,1.2-2.5,2.6V153c0,1.4,1.1,2.6,2.5,2.6H285
				c1.4,0,2.5-1.2,2.5-2.6v-26.8C287.5,124.8,286.4,123.6,285,123.6z M239.3,153v-26.8c0-0.5,0.4-0.9,0.9-0.9h35.4v28.7h-35.4
				C239.7,153.9,239.3,153.5,239.3,153z M285.9,153c0,0.5-0.4,0.9-0.9,0.9h-7.8v-28.7h7.8c0.5,0,0.9,0.4,0.9,0.9V153z"/>
			<path id="XMLID_12_" class="st3" d="M272.9,128c-0.4,0-0.8,0.4-0.8,0.8v21.4c0,0.5,0.4,0.8,0.8,0.8c0.4,0,0.8-0.4,0.8-0.8v-21.4
				C273.7,128.4,273.4,128,272.9,128z"/>
			<path id="XMLID_29_" class="st3" d="M269.5,128h-26.7c-0.4,0-0.8,0.4-0.8,0.8v21.4c0,0.5,0.4,0.8,0.8,0.8h26.7
				c0.4,0,0.8-0.4,0.8-0.8v-21.4C270.3,128.4,269.9,128,269.5,128z M268.7,149.4h-25.1v-19.7h25.1V149.4z"/>
			<path id="XMLID_25_" class="st3" d="M281.5,145c-1.9,0-3.4,1.6-3.4,3.5s1.5,3.5,3.4,3.5s3.4-1.6,3.4-3.5S283.4,145,281.5,145z
				 M283.3,148.5c0,0.2,0,0.4-0.1,0.6l-2.2-2.3c0.2-0.1,0.4-0.1,0.5-0.1C282.5,146.7,283.3,147.5,283.3,148.5z M279.8,148.5
				c0-0.2,0-0.4,0.1-0.6l2.2,2.3c-0.2,0.1-0.4,0.1-0.5,0.1C280.6,150.3,279.8,149.5,279.8,148.5z"/>
			<path id="XMLID_21_" class="st3" d="M281.5,137c-1.9,0-3.4,1.6-3.4,3.5s1.5,3.5,3.4,3.5s3.4-1.6,3.4-3.5S283.4,137,281.5,137z
				 M283.3,140.5c0,0.2,0,0.4-0.1,0.6l-2.2-2.3c0.2-0.1,0.4-0.1,0.5-0.1C282.5,138.6,283.3,139.5,283.3,140.5z M279.8,140.5
				c0-0.2,0-0.4,0.1-0.6l2.2,2.3c-0.2,0.1-0.4,0.1-0.5,0.1C280.6,142.3,279.8,141.5,279.8,140.5z"/>
			<path id="XMLID_3_" class="st3" d="M279.8,135.1h3.4c0.4,0,0.8-0.4,0.8-0.8s-0.4-0.8-0.8-0.8h-3.4c-0.4,0-0.8,0.4-0.8,0.8
				S279.4,135.1,279.8,135.1z"/>
			<path id="XMLID_2_" class="st3" d="M279.8,132.4h3.4c0.4,0,0.8-0.4,0.8-0.8s-0.4-0.8-0.8-0.8h-3.4c-0.4,0-0.8,0.4-0.8,0.8
				S279.4,132.4,279.8,132.4z"/>
			<path id="XMLID_16_" class="st3" d="M279.8,129.7h3.4c0.4,0,0.8-0.4,0.8-0.8c0-0.5-0.4-0.8-0.8-0.8h-3.4c-0.4,0-0.8,0.4-0.8,0.8
				C279,129.3,279.4,129.7,279.8,129.7z"/>
		</g>
	</g>
	<g id="Capa_14">
		<g id="XMLID_30_">
			<path id="XMLID_35_" class="st2" d="M277,434.9l-1.5-8.5c-0.1-0.6-0.6-1-1.2-1h-12.7c-0.6,0-1.1,0.4-1.2,1l-1.5,8.6
				c-2.9,0.5-5.1,3.1-5.1,6.1v19.7c0,3,2.2,5.6,5.1,6.1l1.5,8.6c0.1,0.6,0.6,1,1.2,1h12.7c0.6,0,1.1-0.4,1.2-1l1.5-8.5
				c2.9-0.5,5.2-3.1,5.2-6.1V441C282.2,437.9,279.9,435.4,277,434.9z M256.2,460v-18.2h23.5V460H256.2z M262.6,427.8h10.6l1.2,7
				h-13.1L262.6,427.8z M259.9,437.3h16h0c1.4,0,2.7,0.8,3.3,2h-22.6C257.3,438.1,258.5,437.3,259.9,437.3z M273.2,474h-10.6l-1.2-7
				h13.1L273.2,474z M275.9,464.5L275.9,464.5h-16c-1.4,0-2.7-0.8-3.3-2h22.6C278.6,463.7,277.4,464.5,275.9,464.5z"/>
			<path id="XMLID_19_" class="st2" d="M274.7,445.6c-0.5-0.5-1.3-0.5-1.8,0l-5,5l-3.1-3.1c-0.5-0.5-1.3-0.5-1.8,0
				c-0.5,0.5-0.5,1.3,0,1.8l3.9,3.9c0.2,0.2,0.5,0.4,0.9,0.4s0.6-0.1,0.9-0.4l5.9-5.9C275.2,446.9,275.2,446.1,274.7,445.6z"/>
			<path id="XMLID_18_" class="st2" d="M284.3,441.8c-0.5,0-0.8,0.4-0.8,0.8v4.5c0,0.5,0.4,0.8,0.8,0.8c0.5,0,0.8-0.4,0.8-0.8v-4.5
				C285.1,442.1,284.8,441.8,284.3,441.8z"/>
			<path id="XMLID_28_" class="st2" d="M284.3,450.2c-0.5,0-0.8,0.4-0.8,0.8v8.2c0,0.5,0.4,0.8,0.8,0.8c0.5,0,0.8-0.4,0.8-0.8v-8.2
				C285.1,450.6,284.8,450.2,284.3,450.2z"/>
		</g>
	</g>
	<g id="Capa_15">
		<path id="XMLID_31_" class="st2" d="M948.1,169.6c3.6,0,6.8,1.7,9.2,4.6l-3.1,3.7c-1.6-1.9-3.7-3-6.1-3s-4.6,1.2-6.1,3.1l-3.1-3.7
			C941.2,171.4,944.5,169.6,948.1,169.6z M932.7,166.8c4.1-4.9,9.5-7.6,15.3-7.6c5.8,0,11.2,2.7,15.3,7.6l-3.1,3.7
			c-3.3-3.9-7.6-6.1-12.3-6.1s-9,2.2-12.3,6.1L932.7,166.8z M959.9,151.7c3.6,1.8,6.9,4.5,9.6,7.8l0,0l-3.1,3.7
			c-4.9-5.9-11.4-9.1-18.4-9.1c-6.9,0-13.5,3.2-18.4,9.1l-3.1-3.7c2.8-3.3,6-6,9.6-7.8c3.7-1.9,7.7-2.9,11.8-2.9
			C952.2,148.8,956.1,149.8,959.9,151.7L959.9,151.7z M945.9,182.6c0-1.4,1-2.6,2.2-2.6c1.2,0,2.2,1.2,2.2,2.6c0,1.4-1,2.6-2.2,2.6
			C946.9,185.2,945.9,184,945.9,182.6z"/>
	</g>
	<g id="Capa_16">
		<path id="XMLID_55_" class="st2" d="M739.4,226.7c-11.8,0-21.3,9.6-21.3,21.4c0,11.8,9.5,21.4,21.3,21.4s21.3-9.6,21.3-21.4
			C760.7,236.3,751.1,226.7,739.4,226.7z M751.4,255.2c0.4-1.8,0.6-3.7,0.7-5.7h5.7c-0.1,2-0.6,3.9-1.4,5.7H751.4z M727.3,241
			c-0.4,1.8-0.6,3.7-0.7,5.7H721c0.1-2,0.6-3.9,1.4-5.7H727.3z M748.5,241c0.4,1.8,0.7,3.7,0.8,5.7h-8.5V241H748.5z M740.8,238.1
			v-8.3c0.6,0.2,1.3,0.5,1.9,1c1.2,0.8,2.3,2.1,3.3,3.7c0.7,1.1,1.2,2.3,1.7,3.7L740.8,238.1L740.8,238.1z M732.8,234.5
			c1-1.6,2.1-2.9,3.3-3.7c0.6-0.4,1.3-0.8,1.9-1v8.3h-6.9C731.5,236.8,732.1,235.6,732.8,234.5L732.8,234.5z M738,241v5.7h-8.5
			c0.1-2,0.3-3.9,0.8-5.7H738z M722.3,255.2c-0.8-1.8-1.2-3.7-1.4-5.7h5.7c0.1,2,0.3,3.9,0.7,5.7H722.3z M729.5,249.5h8.5v5.7h-7.7
			C729.8,253.4,729.6,251.5,729.5,249.5z M738,258.1v8.3c-0.6-0.2-1.3-0.5-1.9-1c-1.2-0.8-2.3-2.1-3.3-3.7c-0.7-1.1-1.2-2.3-1.7-3.7
			L738,258.1L738,258.1z M746,261.8c-1,1.6-2.1,2.9-3.3,3.7c-0.6,0.4-1.3,0.8-1.9,1v-8.3h6.9C747.2,259.4,746.6,260.7,746,261.8
			L746,261.8z M740.8,255.2v-5.7h8.5c-0.1,2-0.3,3.9-0.8,5.7H740.8z M752.1,246.7c-0.1-2-0.3-3.9-0.7-5.7h5c0.8,1.8,1.2,3.7,1.4,5.7
			H752.1z M754.9,238.1h-4.3c-0.8-2.6-2-4.9-3.3-6.7c1.9,0.9,3.6,2.1,5.1,3.6C753.4,236,754.2,237,754.9,238.1z M726.3,235
			c1.5-1.5,3.2-2.7,5.1-3.6c-1.4,1.8-2.5,4.1-3.3,6.7h-4.3C724.5,237,725.4,236,726.3,235z M723.8,258.1h4.3c0.8,2.6,2,4.9,3.3,6.7
			c-1.9-0.9-3.6-2.1-5.1-3.6C725.4,260.2,724.5,259.2,723.8,258.1z M752.4,261.2c-1.5,1.5-3.2,2.7-5.1,3.6c1.4-1.8,2.5-4.1,3.3-6.7
			h4.3C754.2,259.2,753.4,260.2,752.4,261.2z"/>
	</g>
	<g id="Capa_17">
		<path id="XMLID_60_" class="st2" d="M714.7,408.3h19.5v5h-19.5V408.3z"/>
		<path id="XMLID_56_" class="st2" d="M741.6,415.7h-34.2c-1.3,0-2.4,1.1-2.4,2.5v12.4c0,1.4,1.1,2.5,2.4,2.5h7.3v9.9h19.5v-9.9h7.3
			c1.3,0,2.4-1.1,2.4-2.5v-12.4C744.1,416.8,743,415.7,741.6,415.7z M709.9,423.2c-1.3,0-2.4-1.1-2.4-2.5c0-1.4,1.1-2.5,2.4-2.5
			s2.4,1.1,2.4,2.5C712.3,422.1,711.2,423.2,709.9,423.2z M731.8,440.5h-14.7v-12.4h14.7V440.5z"/>
	</g>
	<g id="Capa_18">
		<path id="XMLID_119_" class="st4" d="M522.6,128.4l0.9-1.3l-1-1l-1.3,0.9c-0.2-0.1-0.5-0.2-0.7-0.3l-0.3-1.6h-1.4l-0.3,1.6
			c-0.3,0.1-0.5,0.2-0.7,0.3l-1.3-0.9l-1,1l0.9,1.3c-0.1,0.2-0.2,0.5-0.3,0.8l-1.5,0.3v1.5l1.5,0.3c0.1,0.3,0.2,0.5,0.3,0.8
			l-0.9,1.3l1,1l1.3-0.9c0.2,0.1,0.5,0.2,0.7,0.3l0.3,1.6h1.4l0.3-1.6c0.3-0.1,0.5-0.2,0.7-0.3l1.3,0.9l1-1l-0.9-1.3
			c0.1-0.2,0.2-0.5,0.3-0.8l1.5-0.3v-1.5l-1.5-0.3C522.8,128.9,522.7,128.6,522.6,128.4L522.6,128.4z M519.6,131.6
			c-0.8,0-1.4-0.7-1.4-1.5s0.6-1.5,1.4-1.5s1.4,0.7,1.4,1.5S520.3,131.6,519.6,131.6z M536.9,120.7v-1.5l-1.5-0.3
			c0-0.2-0.1-0.4-0.1-0.5l1.3-0.8l-0.5-1.3l-1.5,0.3c-0.1-0.2-0.2-0.3-0.3-0.5l0.8-1.3l-1-1l-1.2,0.9c-0.1-0.1-0.3-0.2-0.4-0.3
			l0.3-1.5l-1.3-0.6l-0.8,1.3c-0.2,0-0.3-0.1-0.5-0.1l-0.3-1.5h-1.4l-0.3,1.5c-0.2,0-0.3,0.1-0.5,0.1l-0.8-1.3l-1.3,0.6l0.3,1.5
			c-0.2,0.1-0.3,0.2-0.4,0.3l-1.2-0.9l-1,1l0.8,1.3c-0.1,0.1-0.2,0.3-0.3,0.5l-1.5-0.3l-0.5,1.3l1.3,0.8c0,0.2-0.1,0.4-0.1,0.5
			l-1.5,0.3v1.5l1.5,0.3c0,0.2,0.1,0.4,0.1,0.5l-1.3,0.8l0.5,1.3l1.5-0.3c0.1,0.2,0.2,0.3,0.3,0.5l-0.8,1.3l1,1l1.2-0.9
			c0.1,0.1,0.3,0.2,0.4,0.3l-0.3,1.5l1.3,0.6l0.8-1.3c0.2,0,0.3,0.1,0.5,0.1l0.3,1.5h1.4l0.3-1.5c0.2,0,0.3-0.1,0.5-0.1l0.8,1.3
			l1.3-0.6l-0.3-1.5c0.2-0.1,0.3-0.2,0.4-0.3l1.2,0.9l1-1l-0.8-1.3c0.1-0.1,0.2-0.3,0.3-0.5l1.5,0.3l0.5-1.3l-1.3-0.8
			c0-0.2,0.1-0.4,0.1-0.5L536.9,120.7z M529.3,123.1c-1.7,0-3-1.4-3-3.2c0-1.8,1.4-3.2,3-3.2s3,1.4,3,3.2
			C532.3,121.7,531,123.1,529.3,123.1z"/>
	</g>
	<g id="Capa_19">
		<g id="XMLID_139_">
			<path id="XMLID_162_" class="st2" d="M907.1,478.9c0.8,0,1.4-0.7,1.4-1.5c0-0.7-0.4-1.2-0.9-1.4v-0.1c0-0.3-0.2-0.5-0.4-0.5
				s-0.4,0.2-0.4,0.5v0.1c-0.5,0.2-0.9,0.8-0.9,1.4C905.7,478.2,906.3,478.9,907.1,478.9z M907.1,476.9c0.3,0,0.5,0.2,0.5,0.5
				s-0.2,0.5-0.5,0.5c-0.3,0-0.5-0.2-0.5-0.5S906.8,476.9,907.1,476.9z"/>
			<path id="XMLID_159_" class="st2" d="M902.4,478.9c0.8,0,1.4-0.7,1.4-1.5c0-0.7-0.4-1.2-0.9-1.4v-0.1c0-0.3-0.2-0.5-0.4-0.5
				s-0.4,0.2-0.4,0.5v0.1c-0.5,0.2-0.9,0.8-0.9,1.4C901,478.2,901.6,478.9,902.4,478.9z M902.4,476.9c0.3,0,0.5,0.2,0.5,0.5
				s-0.2,0.5-0.5,0.5c-0.3,0-0.5-0.2-0.5-0.5S902.1,476.9,902.4,476.9z"/>
			<path id="XMLID_156_" class="st2" d="M916.5,478.9c0.8,0,1.4-0.7,1.4-1.5c0-0.7-0.4-1.2-0.9-1.4v-0.1c0-0.3-0.2-0.5-0.4-0.5
				s-0.4,0.2-0.4,0.5v0.1c-0.5,0.2-0.9,0.8-0.9,1.4C915.1,478.2,915.7,478.9,916.5,478.9z M916.5,476.9c0.3,0,0.5,0.2,0.5,0.5
				s-0.2,0.5-0.5,0.5c-0.3,0-0.5-0.2-0.5-0.5S916.2,476.9,916.5,476.9z"/>
			<path id="XMLID_153_" class="st2" d="M911.8,478.9c0.8,0,1.4-0.7,1.4-1.5c0-0.7-0.4-1.2-0.9-1.4v-0.1c0-0.3-0.2-0.5-0.4-0.5
				s-0.4,0.2-0.4,0.5v0.1c-0.5,0.2-0.9,0.8-0.9,1.4C910.4,478.2,911,478.9,911.8,478.9z M911.8,476.9c0.3,0,0.5,0.2,0.5,0.5
				s-0.2,0.5-0.5,0.5c-0.3,0-0.5-0.2-0.5-0.5S911.5,476.9,911.8,476.9z"/>
			<path id="XMLID_129_" class="st2" d="M916.5,484h-14.1c-0.2,0-0.4,0.2-0.4,0.5c0,0.3,0.2,0.5,0.4,0.5h14.1c0.2,0,0.4-0.2,0.4-0.5
				C916.9,484.3,916.8,484,916.5,484z"/>
			<path id="XMLID_149_" class="st2" d="M917.9,482H901c-0.5,0-0.9,0.4-0.9,1v14.2c0,0.5,0.4,1,0.9,1h16.9c0.5,0,0.9-0.4,0.9-1V483
				C918.8,482.5,918.4,482,917.9,482z M917.9,497.2C917.9,497.2,917.9,497.3,917.9,497.2l-16.9,0c0,0,0,0,0,0V483c0,0,0,0,0,0h16.9
				c0,0,0,0,0,0V497.2z"/>
			<path id="XMLID_146_" class="st2" d="M916.5,486.1h-14.1c-0.2,0-0.4,0.2-0.4,0.5v9.1c0,0.3,0.2,0.5,0.4,0.5h14.1
				c0.2,0,0.4-0.2,0.4-0.5v-9.1C916.9,486.3,916.8,486.1,916.5,486.1z M916.1,495.2h-13.2V487h13.2V495.2z"/>
			<path id="XMLID_140_" class="st2" d="M919.8,473.9h-1v-0.5c0-0.5-0.4-1-0.9-1h-6.6c-0.5,0-0.9,0.4-0.9,1v0.5h-1.9v-0.5
				c0-0.5-0.4-1-0.9-1H901c-0.5,0-0.9,0.4-0.9,1v0.5h-1c-0.5,0-0.9,0.4-0.9,1v25.9c0,0.5,0.4,1,0.9,1h0.9c0.5,0,0.9-0.4,0.9-1v-0.5
				h17v0.5c0,0.5,0.4,1,0.9,1h0.9c0.5,0,0.9-0.4,0.9-1v-25.9C920.7,474.3,920.3,473.9,919.8,473.9z M911.3,473.3
				C911.3,473.3,911.3,473.3,911.3,473.3l6.6,0c0,0,0,0,0,0v0.5h-6.6V473.3z M901,473.3C901,473.3,901,473.3,901,473.3l6.6,0
				c0,0,0,0,0,0v0.5H901V473.3z M899.1,474.8h20.7c0,0,0,0,0,0v5.1h-20.7L899.1,474.8C899.1,474.9,899.1,474.8,899.1,474.8z
				 M919.8,500.8h-0.9c0,0,0,0,0,0v-1c0-0.3-0.2-0.5-0.4-0.5h-17.9c-0.2,0-0.4,0.2-0.4,0.5v1c0,0,0,0,0,0h-0.9c0,0,0,0,0,0v-19.8
				h20.7L919.8,500.8C919.8,500.8,919.8,500.8,919.8,500.8z"/>
		</g>
	</g>
	<g id="Capa_20">
		<path id="XMLID_154_" class="st2" d="M629,48.8c-1.9-1.9-4.3-2.9-7-2.9c-5.3,0.1-9.6,4.5-9.6,10c0,1.6,0.4,3.1,1.1,4.5
			c1.2,2.3,1.8,5,1.8,7.8v3.2c0,2.8,2.1,5.1,4.8,5.4c0.2,1,1.1,1.7,2.1,1.7c1,0,1.9-0.7,2.1-1.7c2.7-0.3,4.8-2.6,4.8-5.4v-3.2
			c0-2.7,0.6-5.4,1.8-7.9c0.7-1.4,1-2.9,1-4.4C631.9,53.2,630.9,50.7,629,48.8L629,48.8z M628,70v1.1h-11.5V70H628z M621.7,53.6
			c0-0.2,0.2-0.4,0.4-0.4c0.2,0,0.4,0.2,0.4,0.4s-0.2,0.4-0.4,0.4C621.9,54,621.7,53.8,621.7,53.6z M620.6,75.6
			c-1.1,0-2.1-0.4-2.8-1.1h8.8c-0.7,0.7-1.7,1.1-2.8,1.1H620.6L620.6,75.6z M616.9,73.4c-0.2-0.3-0.3-0.7-0.4-1.1h11.3
			c-0.1,0.4-0.2,0.8-0.4,1.1H616.9L616.9,73.4z M622.2,77.3c-0.4,0-0.7-0.2-0.9-0.5h1.8C622.9,77.1,622.6,77.3,622.2,77.3z
			 M629.9,59.8c-1.3,2.6-2,5.5-2,8.4v0.7h-3.2V58.8l1.4-1.4c0.2,0.1,0.4,0.1,0.6,0.1c0.8,0,1.5-0.7,1.5-1.5c0-0.8-0.7-1.5-1.5-1.5
			c-0.8,0-1.5,0.7-1.5,1.5c0,0.2,0,0.4,0.1,0.6l-1.6,1.6c-0.1,0.1-0.2,0.2-0.2,0.4v10.3h-1.1V55c0.5-0.2,0.9-0.8,0.9-1.4
			c0-0.8-0.7-1.5-1.5-1.5c-0.8,0-1.5,0.7-1.5,1.5c0,0.6,0.4,1.2,0.9,1.4v13.9h-1.1v-6c0-0.1-0.1-0.3-0.2-0.4l-1.6-1.6
			c0.1-0.2,0.1-0.4,0.1-0.6c0-0.8-0.7-1.5-1.5-1.5c-0.8,0-1.5,0.7-1.5,1.5s0.7,1.5,1.5,1.5c0.2,0,0.4,0,0.6-0.1l1.4,1.4v5.8h-2.9
			v-0.7c0-2.9-0.7-5.8-1.9-8.3c-0.6-1.2-0.9-2.6-0.9-4c0-4.8,3.8-8.8,8.5-8.8c2.3,0,4.5,0.9,6.2,2.5c1.7,1.7,2.6,3.9,2.6,6.3
			C630.8,57.3,630.5,58.6,629.9,59.8L629.9,59.8z M626.4,56c0-0.2,0.2-0.4,0.4-0.4c0.2,0,0.4,0.2,0.4,0.4c0,0.2-0.2,0.4-0.4,0.4
			C626.6,56.4,626.4,56.2,626.4,56z M617.3,60.7c-0.2,0-0.4-0.2-0.4-0.4s0.2-0.4,0.4-0.4s0.4,0.2,0.4,0.4S617.5,60.7,617.3,60.7z"/>
	</g>
	<g id="Capa_21">
		<path id="XMLID_269_" class="st5" d="M138.7,204.8c0,2.2,1.8,4,3.9,4c2.2,0,3.9-1.8,3.9-4s-1.8-4-3.9-4
			C140.5,200.8,138.7,202.6,138.7,204.8z M151.1,198.1h-4.2c-0.3-1.2-0.6-2.5-1.8-2.5h-4.8c-1.2,0-1.5,1.2-1.8,2.5h-4.2
			c-0.7,0-1.2,0.6-1.2,1.2v11.1c0,0.7,0.5,1.2,1.2,1.2h16.9c0.7,0,1.2-0.6,1.2-1.2v-11.1C152.3,198.6,151.7,198.1,151.1,198.1z
			 M142.6,210.3c-3,0-5.4-2.4-5.4-5.5s2.4-5.5,5.4-5.5c3,0,5.4,2.4,5.4,5.5S145.6,210.3,142.6,210.3z M151.1,201.8h-2.4v-1.2h2.4
			V201.8z"/>
	</g>
	<g id="Capa_22">
		<g id="XMLID_177_">
			<g id="XMLID_178_">
				<g id="XMLID_179_">
					<path id="XMLID_193_" class="st5" d="M112.8,82.3c0.7,0,1.4-0.6,1.4-1.4v-1.4h1.4c0.7,0,1.4-0.6,1.4-1.4s-0.6-1.4-1.4-1.4h-1.4
						v-1.4c0-0.8-0.6-1.4-1.4-1.4s-1.4,0.6-1.4,1.4v1.4h-1.4c-0.7,0-1.4,0.6-1.4,1.4s0.6,1.4,1.4,1.4h1.4v1.4
						C111.4,81.7,112,82.3,112.8,82.3z M110.1,78.6c-0.2,0-0.5-0.2-0.5-0.5c0-0.3,0.2-0.5,0.5-0.5h1.8c0.2,0,0.5-0.2,0.5-0.5v-1.8
						c0-0.3,0.2-0.5,0.5-0.5c0.2,0,0.5,0.2,0.5,0.5v1.8c0,0.3,0.2,0.5,0.5,0.5h1.8c0.2,0,0.5,0.2,0.5,0.5c0,0.3-0.2,0.5-0.5,0.5
						h-1.8c-0.2,0-0.5,0.2-0.5,0.5v1.8c0,0.3-0.2,0.5-0.5,0.5c-0.2,0-0.5-0.2-0.5-0.5v-1.8c0-0.3-0.2-0.5-0.5-0.5H110.1z"/>
					<path id="XMLID_173_" class="st5" d="M126.3,71.3h-3.2v-4.1c0-1.3-1-2.3-2.3-2.3c-1.2,0-2.3,1-2.3,2.3c0,0.8-0.6,1.4-1.4,1.4
						s-1.4-0.6-1.4-1.4v-5.5c0-0.3-0.2-0.5-0.5-0.5s-0.5,0.2-0.5,0.5v5.5c0,1.3,1,2.3,2.3,2.3c1.2,0,2.3-1,2.3-2.3
						c0-0.8,0.6-1.4,1.4-1.4s1.4,0.6,1.4,1.4v4.6c0,0.3,0.2,0.5,0.5,0.5h3.6c3.2,0,5.9,2.7,5.9,6v7.4c0,1.5-1.3,2.3-2.3,2.3
						c-1.3,0-2.1-0.9-3.1-2c-1.4-1.6-3.2-3.6-7.3-3.6c-4.1,0-5.9,2-7.3,3.6c-1,1.1-1.8,2-3.1,2c-0.9,0-2.3-0.9-2.3-2.3v-7.4
						c0-3.2,2.7-6,5.9-6h8.1c0.2,0,0.5-0.2,0.5-0.5s-0.2-0.5-0.5-0.5h-8.1c-3.7,0-6.8,3.2-6.8,6.9v7.4c0,1.9,1.7,3.2,3.2,3.2
						c1.7,0,2.7-1.1,3.7-2.3c1.4-1.5,2.9-3.3,6.6-3.3c3.7,0,5.3,1.7,6.6,3.3c1,1.2,2,2.3,3.7,2.3c1.5,0,3.2-1.3,3.2-3.2v-7.4
						C133,74.4,129.9,71.3,126.3,71.3z"/>
					<path id="XMLID_189_" class="st5" d="M129,79.5c0.7,0,1.4-0.6,1.4-1.4s-0.6-1.4-1.4-1.4s-1.4,0.6-1.4,1.4S128.2,79.5,129,79.5z
						 M129,77.7c0.2,0,0.5,0.2,0.5,0.5c0,0.3-0.2,0.5-0.5,0.5c-0.2,0-0.5-0.2-0.5-0.5C128.5,77.9,128.7,77.7,129,77.7z"/>
					<path id="XMLID_186_" class="st5" d="M126.3,74c-0.7,0-1.4,0.6-1.4,1.4s0.6,1.4,1.4,1.4s1.4-0.6,1.4-1.4S127,74,126.3,74z
						 M126.3,75.9c-0.2,0-0.5-0.2-0.5-0.5c0-0.3,0.2-0.5,0.5-0.5c0.2,0,0.5,0.2,0.5,0.5C126.7,75.7,126.5,75.9,126.3,75.9z"/>
					<path id="XMLID_183_" class="st5" d="M123.6,76.8c-0.7,0-1.4,0.6-1.4,1.4s0.6,1.4,1.4,1.4s1.4-0.6,1.4-1.4
						S124.3,76.8,123.6,76.8z M123.6,78.6c-0.2,0-0.5-0.2-0.5-0.5c0-0.3,0.2-0.5,0.5-0.5c0.2,0,0.5,0.2,0.5,0.5
						C124,78.4,123.8,78.6,123.6,78.6z"/>
					<path id="XMLID_180_" class="st5" d="M126.3,82.3c0.7,0,1.4-0.6,1.4-1.4s-0.6-1.4-1.4-1.4s-1.4,0.6-1.4,1.4
						S125.5,82.3,126.3,82.3z M126.3,80.5c0.2,0,0.5,0.2,0.5,0.5c0,0.3-0.2,0.5-0.5,0.5c-0.2,0-0.5-0.2-0.5-0.5
						C125.8,80.7,126,80.5,126.3,80.5z"/>
				</g>
			</g>
		</g>
	</g>
	<g id="Capa_23">
		<g id="XMLID_184_">
			<path id="XMLID_185_" class="st4" d="M897.6,51.9L897.6,51.9l-0.1,0h-23.7h-0.1v0c-0.8,0.1-1.4,0.6-1.4,1.4v0.1v15.1
				c0,0.3,0.1,0.5,0.2,0.8c0.3,0.5,0.7,0.8,1.4,0.8h8.6v2.1h-1.6c-0.4,0-0.7,0.3-0.7,0.7c0,0.4,0.3,0.7,0.7,0.7h9.7
				c0.4,0,0.7-0.3,0.7-0.7c0-0.4-0.3-0.7-0.7-0.7h-1.6V70h8.6c0.6,0,1.1-0.3,1.4-0.8c0.1-0.2,0.2-0.5,0.2-0.8V53.4v-0.1
				C898.9,52.5,898.3,51.9,897.6,51.9z M897.6,53.4v15.1c0,0.1,0,0.1-0.1,0.1h-23.7c-0.1,0-0.1,0-0.1-0.1V53.4v-0.1h23.9L897.6,53.4
				L897.6,53.4z"/>
		</g>
	</g>
	<g id="Capa_24">
		<path id="XMLID_187_" class="st2" d="M1079.4,204.7h1.2v15.7c0,1.9-1.8,3.4-4.1,3.4c-2.3,0-4.1-1.5-4.1-3.4c0-1.9,1.8-3.4,4.1-3.4
			c1.1,0,2.2,0.4,2.9,1v-7.8l-9.3,2.4v10.5c0,1.9-1.8,3.4-4.1,3.4c-2.3,0-4.1-1.5-4.1-3.4s1.8-3.4,4.1-3.4c1.1,0,2.2,0.4,2.9,1
			v-13.3L1079.4,204.7z"/>
	</g>
	<g id="Capa_25">
		<path id="XMLID_182_" class="st2" d="M844.1,357.1l12.1,7.5l-12.1,7.5V357.1z"/>
	</g>
	<g id="Capa_26">
		<path id="XMLID_192_" class="st2" d="M774,147.3l1.6-6.9c0.2-0.7,0.1-1.4-0.1-1.8c1.9,0.5,4,0.3,5.9-0.7c4.2-2.1,5.8-7.3,3.7-11.5
			c-2.2-4.2-7.3-5.9-11.5-3.8s-5.8,7.3-3.7,11.5c1,1.9,2.5,3.3,4.4,4c-0.4,0.2-0.9,0.7-1.1,1.4l-2.7,6.6c-0.4,1.1,0.1,2.3,1.2,2.6
			C772.6,149.1,773.7,148.4,774,147.3z M772.3,132.8c-1.4-2.8-0.3-6.3,2.4-7.7c2.8-1.4,6.2-0.3,7.7,2.5s0.3,6.3-2.4,7.7
			C777.2,136.8,773.8,135.7,772.3,132.8z"/>
	</g>
	<g id="Capa_28">
		<g id="XMLID_230_">
			<path id="XMLID_262_" class="st2" d="M381.7,37h-8.8c-0.1-0.5-0.4-1-0.8-1.4l3.1-2.6c0.2,0.1,0.5,0.2,0.8,0.2
				c0.8,0,1.5-0.6,1.5-1.3c0-0.7-0.7-1.3-1.5-1.3c-0.8,0-1.5,0.6-1.5,1.3c0,0.2,0.1,0.5,0.2,0.6l-3.1,2.6c-1.3-0.9-3.2-0.9-4.6,0
				l-3.1-2.6c0.1-0.2,0.2-0.4,0.2-0.6c0-0.7-0.7-1.3-1.5-1.3c-0.8,0-1.5,0.6-1.5,1.3c0,0.7,0.7,1.3,1.5,1.3c0.3,0,0.5-0.1,0.8-0.2
				l3.1,2.6c-0.4,0.4-0.7,0.9-0.8,1.4h-9.1c-2.5,0-4.5,1.7-4.5,3.8v14c0,2.1,2,3.8,4.5,3.8h1.4v0.4c0,0.3,0.3,0.5,0.6,0.5
				s0.6-0.2,0.6-0.5v-0.4h20v0.4c0,0.3,0.3,0.5,0.6,0.5c0.3,0,0.6-0.2,0.6-0.5v-0.4h1.4c2.5,0,4.5-1.7,4.5-3.8v-14
				C386.1,38.7,384.1,37,381.7,37L381.7,37z M375.9,31.2c0.4,0,0.7,0.3,0.7,0.6c0,0.3-0.3,0.6-0.7,0.6c-0.4,0-0.7-0.3-0.7-0.6
				C375.2,31.5,375.5,31.2,375.9,31.2z M362.5,32.5c-0.4,0-0.7-0.3-0.7-0.6c0-0.3,0.3-0.6,0.7-0.6s0.7,0.3,0.7,0.6
				C363.3,32.2,362.9,32.5,362.5,32.5z M367.5,36c1-0.8,2.5-0.8,3.5,0c0.3,0.3,0.6,0.6,0.7,1h-4.8C366.9,36.6,367.2,36.3,367.5,36
				L367.5,36z M385,54.8c0,1.5-1.5,2.8-3.3,2.8h-25.1c-1.8,0-3.3-1.3-3.3-2.8v-14c0-1.5,1.5-2.8,3.3-2.8h25.1c1.8,0,3.3,1.3,3.3,2.8
				V54.8z"/>
			<path id="XMLID_259_" class="st2" d="M381.6,38.6h-25.1c-1.5,0-2.6,1-2.6,2.2v14c0,1.2,1.2,2.2,2.6,2.2h25.1c1.5,0,2.6-1,2.6-2.2
				v-14C384.3,39.6,383.1,38.6,381.6,38.6L381.6,38.6z M383.5,54.8c0,0.9-0.8,1.6-1.9,1.6h-25.1c-1,0-1.9-0.7-1.9-1.6v-14
				c0-0.9,0.8-1.6,1.9-1.6h25.1c1,0,1.9,0.7,1.9,1.6V54.8z"/>
			<path id="XMLID_256_" class="st2" d="M374.8,40.4c-5.7-0.7-11.5-0.7-17.2,0c-0.8,0.1-1.4,0.6-1.5,1.2c-0.9,4.1-0.9,8.3,0,12.4
				c0.1,0.6,0.8,1.1,1.5,1.2c2.9,0.4,5.7,0.5,8.6,0.5s5.8-0.2,8.6-0.5c0.8-0.1,1.4-0.6,1.5-1.2c0.9-4.1,0.9-8.3,0-12.4
				C376.2,41,375.6,40.5,374.8,40.4L374.8,40.4z M375.6,53.9c-0.1,0.4-0.4,0.7-0.9,0.7c-5.6,0.7-11.4,0.7-17,0
				c-0.4-0.1-0.8-0.3-0.9-0.7c-0.9-4-0.9-8.1,0-12.2c0.1-0.4,0.4-0.7,0.9-0.7c2.8-0.4,5.7-0.5,8.5-0.5c2.8,0,5.7,0.2,8.5,0.5
				c0.4,0.1,0.8,0.3,0.9,0.7C376.5,45.8,376.5,49.9,375.6,53.9z"/>
			<path id="XMLID_219_" class="st2" d="M374.8,44.1c-0.2,0-0.4,0.2-0.3,0.4c0.2,1.8,0.3,3.7,0.1,5.6c0,0.2,0.1,0.3,0.4,0.3
				c0,0,0,0,0,0c0.2,0,0.4-0.1,0.4-0.3c0.2-1.9,0.1-3.8-0.1-5.7C375.2,44.2,375,44,374.8,44.1L374.8,44.1z"/>
			<path id="XMLID_218_" class="st2" d="M374.8,43.6c0.2,0,0.4-0.2,0.3-0.4c-0.1-0.5-0.2-0.9-0.3-1.4c0-0.2-0.2-0.3-0.4-0.3
				c-0.2,0-0.3,0.2-0.3,0.4c0.1,0.4,0.2,0.9,0.3,1.4C374.4,43.5,374.5,43.6,374.8,43.6C374.7,43.6,374.8,43.6,374.8,43.6L374.8,43.6
				z"/>
			<path id="XMLID_217_" class="st2" d="M382.2,52.6H378c-0.2,0-0.4,0.1-0.4,0.3s0.2,0.3,0.4,0.3h4.2c0.2,0,0.4-0.1,0.4-0.3
				S382.4,52.6,382.2,52.6z"/>
			<path id="XMLID_216_" class="st2" d="M382.2,53.8H378c-0.2,0-0.4,0.1-0.4,0.3s0.2,0.3,0.4,0.3h4.2c0.2,0,0.4-0.1,0.4-0.3
				S382.4,53.8,382.2,53.8z"/>
			<path id="XMLID_215_" class="st2" d="M382.2,55H378c-0.2,0-0.4,0.1-0.4,0.3s0.2,0.3,0.4,0.3h4.2c0.2,0,0.4-0.1,0.4-0.3
				S382.4,55,382.2,55z"/>
			<path id="XMLID_247_" class="st2" d="M378.7,48.8c-0.8,0.6-0.8,1.7,0,2.3c0.4,0.3,0.9,0.5,1.4,0.5s1-0.2,1.4-0.5
				c0.4-0.3,0.6-0.7,0.6-1.2c0-0.4-0.2-0.9-0.6-1.2C380.7,48.2,379.5,48.2,378.7,48.8z M379.3,49.3c0.2-0.2,0.5-0.3,0.9-0.3
				c0.2,0,0.4,0,0.5,0.1l-1.6,1.4C378.8,50.1,378.9,49.6,379.3,49.3L379.3,49.3z M381,50.7c-0.4,0.3-0.9,0.4-1.4,0.2l1.6-1.4
				c0.1,0.1,0.1,0.3,0.1,0.5C381.3,50.3,381.2,50.5,381,50.7L381,50.7z"/>
			<path id="XMLID_243_" class="st2" d="M378.7,47.1c0.4,0.3,0.9,0.5,1.4,0.5c0.5,0,1-0.2,1.4-0.5c0.4-0.3,0.6-0.7,0.6-1.2
				s-0.2-0.9-0.6-1.2c-0.8-0.6-2-0.6-2.8,0C378,45.4,378,46.5,378.7,47.1z M379.3,46.7c-0.4-0.3-0.4-0.8-0.2-1.2l1.6,1.4
				C380.2,47.1,379.6,47,379.3,46.7L379.3,46.7z M381,45.2c0.2,0.2,0.4,0.4,0.4,0.7c0,0.2,0,0.3-0.1,0.5l-1.6-1.4
				c0.2-0.1,0.4-0.1,0.5-0.1C380.4,44.9,380.7,45,381,45.2L381,45.2z"/>
			<path id="XMLID_208_" class="st2" d="M378.3,42.3c0.1,0,0.2,0,0.3-0.1s0.1-0.1,0.1-0.2s0-0.2-0.1-0.2c-0.1-0.1-0.2-0.1-0.3-0.1
				c-0.1,0-0.2,0-0.3,0.1c-0.1,0.1-0.1,0.1-0.1,0.2c0,0.1,0,0.2,0.1,0.2C378.1,42.3,378.2,42.3,378.3,42.3z"/>
			<path id="XMLID_207_" class="st2" d="M379.5,42.3c0.1,0,0.2,0,0.3-0.1c0.1-0.1,0.1-0.1,0.1-0.2s0-0.2-0.1-0.2
				c-0.1-0.1-0.2-0.1-0.3-0.1s-0.2,0-0.3,0.1c-0.1,0.1-0.1,0.1-0.1,0.2c0,0.1,0,0.2,0.1,0.2C379.3,42.3,379.4,42.3,379.5,42.3z"/>
			<path id="XMLID_206_" class="st2" d="M380.7,42.3c0.1,0,0.2,0,0.3-0.1c0.1-0.1,0.1-0.1,0.1-0.2s0-0.2-0.1-0.2
				c-0.1-0.1-0.2-0.1-0.3-0.1c-0.1,0-0.2,0-0.3,0.1c-0.1,0.1-0.1,0.1-0.1,0.2c0,0.1,0,0.2,0.1,0.2S380.6,42.3,380.7,42.3z"/>
			<path id="XMLID_205_" class="st2" d="M381.9,42.3c0.1,0,0.2,0,0.3-0.1c0.1-0.1,0.1-0.1,0.1-0.2s0-0.2-0.1-0.2
				c-0.1-0.1-0.2-0.1-0.3-0.1s-0.2,0-0.3,0.1c-0.1,0.1-0.1,0.1-0.1,0.2c0,0.1,0,0.2,0.1,0.2C381.7,42.3,381.8,42.3,381.9,42.3z"/>
			<path id="XMLID_204_" class="st2" d="M378.3,41.4c0.1,0,0.2,0,0.3-0.1c0.1-0.1,0.1-0.1,0.1-0.2s0-0.2-0.1-0.2
				c-0.1-0.1-0.2-0.1-0.3-0.1c-0.1,0-0.2,0-0.3,0.1c-0.1,0.1-0.1,0.1-0.1,0.2c0,0.1,0,0.2,0.1,0.2C378.1,41.4,378.2,41.4,378.3,41.4
				z"/>
			<path id="XMLID_203_" class="st2" d="M379.5,41.4c0.1,0,0.2,0,0.3-0.1c0.1-0.1,0.1-0.1,0.1-0.2s0-0.2-0.1-0.2
				c-0.1-0.1-0.2-0.1-0.3-0.1c-0.1,0-0.2,0-0.3,0.1c-0.1,0.1-0.1,0.1-0.1,0.2c0,0.1,0,0.2,0.1,0.2C379.3,41.4,379.4,41.4,379.5,41.4
				z"/>
			<path id="XMLID_202_" class="st2" d="M380.7,41.4c0.1,0,0.2,0,0.3-0.1c0.1-0.1,0.1-0.1,0.1-0.2s0-0.2-0.1-0.2
				c-0.1-0.1-0.2-0.1-0.3-0.1c-0.1,0-0.2,0-0.3,0.1c-0.1,0.1-0.1,0.1-0.1,0.2c0,0.1,0,0.2,0.1,0.2C380.5,41.4,380.6,41.4,380.7,41.4
				z"/>
			<path id="XMLID_201_" class="st2" d="M381.9,41.4c0.1,0,0.2,0,0.3-0.1c0.1-0.1,0.1-0.1,0.1-0.2s0-0.2-0.1-0.2
				c-0.1-0.1-0.2-0.1-0.3-0.1c-0.1,0-0.2,0-0.3,0.1c-0.1,0.1-0.1,0.1-0.1,0.2c0,0.1,0,0.2,0.1,0.2C381.7,41.4,381.8,41.4,381.9,41.4
				z"/>
			<path id="XMLID_200_" class="st2" d="M378.3,43.3c0.1,0,0.2,0,0.3-0.1c0.1-0.1,0.1-0.1,0.1-0.2c0-0.1,0-0.2-0.1-0.2
				c-0.1-0.1-0.2-0.1-0.3-0.1c-0.1,0-0.2,0-0.3,0.1c-0.1,0.1-0.1,0.1-0.1,0.2c0,0.1,0,0.2,0.1,0.2C378.1,43.2,378.2,43.3,378.3,43.3
				z"/>
			<path id="XMLID_199_" class="st2" d="M379.5,43.3c0.1,0,0.2,0,0.3-0.1c0.1-0.1,0.1-0.1,0.1-0.2s0-0.2-0.1-0.2
				c-0.1-0.1-0.2-0.1-0.3-0.1c-0.1,0-0.2,0-0.3,0.1c-0.1,0.1-0.1,0.1-0.1,0.2c0,0.1,0,0.2,0.1,0.2C379.3,43.2,379.4,43.3,379.5,43.3
				z"/>
			<path id="XMLID_198_" class="st2" d="M380.7,43.3c0.1,0,0.2,0,0.3-0.1c0.1-0.1,0.1-0.1,0.1-0.2s0-0.2-0.1-0.2
				c-0.1-0.1-0.2-0.1-0.3-0.1c-0.1,0-0.2,0-0.3,0.1c-0.1,0.1-0.1,0.1-0.1,0.2c0,0.1,0,0.2,0.1,0.2S380.6,43.3,380.7,43.3z"/>
			<path id="XMLID_197_" class="st2" d="M381.9,43.3c0.1,0,0.2,0,0.3-0.1c0.1-0.1,0.1-0.1,0.1-0.2s0-0.2-0.1-0.2
				c-0.1-0.1-0.2-0.1-0.3-0.1c-0.1,0-0.2,0-0.3,0.1c-0.1,0.1-0.1,0.1-0.1,0.2c0,0.1,0,0.2,0.1,0.2C381.7,43.2,381.8,43.3,381.9,43.3
				z"/>
		</g>
		<path id="XMLID_196_" class="st2" d="M333.7,548.7c0,0.9-0.7,1.5-1.6,1.5s-1.6-0.7-1.6-1.5s0.7-1.5,1.6-1.5
			S333.7,547.8,333.7,548.7z"/>
		<path id="XMLID_195_" class="st2" d="M344.5,548.7c0,0.9-0.7,1.5-1.6,1.5s-1.6-0.7-1.6-1.5s0.7-1.5,1.6-1.5
			S344.5,547.8,344.5,548.7z"/>
		<path id="XMLID_194_" class="st2" d="M344.5,542v-6.2h-13c0-0.6-0.5-1-1.1-1h-3.3v1h2.2l0.8,6.6c-0.5,0.4-0.8,1-0.8,1.6
			c0,1.1,1,2.1,2.2,2.1h13v-1h-13c-0.6,0-1.1-0.5-1.1-1c0,0,0,0,0,0L344.5,542z"/>
	</g>
</g>
<g id="rayas">
	<g id="Capa_30">
		<line id="XMLID_229_" class="st6" x1="515.7" y1="180.5" x2="524.8" y2="143.4"/>
	</g>
	<g id="Capa_31">
		<line id="XMLID_231_" class="st7" x1="541.6" y1="111.9" x2="600.1" y2="73.5"/>
	</g>
	<g id="Capa_32">
		<line id="XMLID_232_" class="st7" x1="546.2" y1="275" x2="702.5" y2="248.1"/>
		<line id="XMLID_233_" class="st7" x1="774" y1="234.8" x2="913" y2="185.2"/>
		<line id="XMLID_234_" class="st7" x1="903.3" y1="78.4" x2="936.6" y2="131.6"/>
		<line id="XMLID_235_" class="st7" x1="983.3" y1="173.7" x2="1055.7" y2="210"/>
	</g>
	<g id="Capa_33">
		<line id="XMLID_188_" class="st7" x1="974.1" y1="143.4" x2="1041" y2="97.5"/>
		<line id="XMLID_236_" class="st7" x1="938.9" y1="207.1" x2="926.6" y2="266.4"/>
	</g>
	<g id="Capa_34">
		<line id="XMLID_238_" class="st7" x1="549" y1="338.8" x2="693" y2="404.9"/>
		<line id="XMLID_239_" class="st7" x1="760.7" y1="415.7" x2="831.7" y2="373.4"/>
		<line id="XMLID_240_" class="st7" x1="755.8" y1="445.3" x2="885.9" y2="491.1"/>
		<line id="XMLID_241_" class="st7" x1="698.8" y1="453.7" x2="649.7" y2="505.5"/>
	</g>
	<g id="Capa_35">
		<line id="XMLID_96_" class="st8" x1="745" y1="209.7" x2="769.9" y2="154.2"/>
	</g>
	<g id="Capa_36">
		<line id="XMLID_242_" class="st9" x1="446.3" y1="189.5" x2="296.1" y2="155.6"/>
		<line id="XMLID_245_" class="st9" x1="285.9" y1="111.9" x2="347.5" y2="58"/>
		<line id="XMLID_246_" class="st9" x1="228.4" y1="125.2" x2="136.9" y2="92.7"/>
		<line id="XMLID_248_" class="st9" x1="96.4" y1="84.9" x2="31.7" y2="100.8"/>
		<line id="XMLID_249_" class="st9" x1="446.3" y1="275" x2="284.5" y2="280.7"/>
		<line id="XMLID_250_" class="st9" x1="161.5" y1="208.7" x2="220.4" y2="263.9"/>
		<line id="XMLID_251_" class="st9" x1="247.9" y1="327.9" x2="230.8" y2="376"/>
		<line id="XMLID_252_" class="st9" x1="448" y1="365.6" x2="301.9" y2="434.8"/>
		<line id="XMLID_253_" class="st9" x1="293" y1="479.6" x2="327.2" y2="527.9"/>
		<line id="XMLID_254_" class="st9" x1="352.5" y1="542.5" x2="405" y2="530.9"/>
	</g>
</g>
<g id="circulo">
	<g id="circulos">
		<ellipse id="XMLID_88_" class="st10" cx="497.3" cy="266.2" rx="28.5" ry="28.3"/>
	</g>
	<g id="circulos_copia">
		<ellipse id="XMLID_98_" class="st10" cx="946.3" cy="168.7" rx="36.9" ry="38.4"/>
		<ellipse id="XMLID_160_" class="st10" cx="268.4" cy="450.9" rx="36.9" ry="38.4"/>
		<ellipse id="XMLID_266_" class="st10" cx="247.9" cy="289.5" rx="36.9" ry="38.4"/>
		<ellipse id="XMLID_99_" class="st10" cx="261.6" cy="142" rx="36.9" ry="38.4"/>
		<ellipse id="XMLID_90_" class="st10" cx="739.4" cy="248.1" rx="36.9" ry="38.4"/>
		<ellipse id="XMLID_97_" class="st10" cx="724" cy="425.6" rx="36.9" ry="38.4"/>
	</g>
	<g id="circulos_copia_2">
		<ellipse id="XMLID_93_" class="st7" cx="525.8" cy="123.6" rx="19.5" ry="19.8"/>
		<ellipse id="XMLID_61_" class="st7" cx="909.4" cy="487.6" rx="23.8" ry="23.5"/>
		<ellipse id="XMLID_1_" class="st7" cx="885.6" cy="62.7" rx="23.8" ry="23.5"/>
		<ellipse id="XMLID_62_" class="st7" cx="118.9" cy="77.3" rx="23.8" ry="23.5"/>
	</g>
	<g id="circulos_copia_3">
		<ellipse id="XMLID_94_" class="st7" cx="776.3" cy="135.3" rx="18.2" ry="18.9"/>
		<ellipse id="XMLID_138_" class="st7" cx="621.7" cy="62.7" rx="24" ry="24.8"/>
		<ellipse id="XMLID_152_" class="st7" cx="369.1" cy="47.1" rx="24" ry="24.8"/>
	</g>
	<g id="Capa_10">
		<ellipse id="XMLID_244_" class="st7" cx="848.3" cy="365.6" rx="16.6" ry="17.1"/>
		<ellipse id="XMLID_157_" class="st7" cx="335.9" cy="542.5" rx="16.6" ry="17.1"/>
		<ellipse id="XMLID_155_" class="st7" cx="141.6" cy="204.6" rx="19.9" ry="19.1"/>
		<ellipse id="XMLID_237_" class="st7" cx="1072.6" cy="215.6" rx="18.3" ry="19.1"/>
	</g>
</g>
<g id="puntos">
	<g id="Capa_37">
		<ellipse id="XMLID_255_" class="st11" cx="29.5" cy="102.1" rx="3.7" ry="3.6"/>
		<ellipse id="XMLID_257_" class="st11" cx="229.2" cy="376" rx="3.7" ry="3.6"/>
		<ellipse id="XMLID_258_" class="st11" cx="405" cy="530.9" rx="3.7" ry="3.6"/>
		<ellipse id="XMLID_260_" class="st11" cx="649.7" cy="505.5" rx="3.7" ry="3.6"/>
		<ellipse id="XMLID_261_" class="st11" cx="926.6" cy="268.4" rx="3.7" ry="3.6"/>
		<ellipse id="XMLID_263_" class="st11" cx="1041" cy="97.5" rx="3.7" ry="3.6"/>
	</g>
</g>
</svg>
