<?xml version="1.0" encoding="UTF-8" standalone="no"?>
<!-- Generated by IcoMoon.io -->

<svg
   xmlns:dc="http://purl.org/dc/elements/1.1/"
   xmlns:cc="http://creativecommons.org/ns#"
   xmlns:rdf="http://www.w3.org/1999/02/22-rdf-syntax-ns#"
   xmlns:svg="http://www.w3.org/2000/svg"
   xmlns="http://www.w3.org/2000/svg"
   xmlns:sodipodi="http://sodipodi.sourceforge.net/DTD/sodipodi-0.dtd"
   xmlns:inkscape="http://www.inkscape.org/namespaces/inkscape"
   version="1.1"
   width="32"
   height="32"
   viewBox="0 0 32 32"
   id="svg6"
   sodipodi:docname="cogs-white.svg"
   inkscape:version="0.92.1 r">
  <metadata
     id="metadata12">
    <rdf:RDF>
      <cc:Work
         rdf:about="">
        <dc:format>image/svg+xml</dc:format>
        <dc:type
           rdf:resource="http://purl.org/dc/dcmitype/StillImage" />
        <dc:title>cogs</dc:title>
      </cc:Work>
    </rdf:RDF>
  </metadata>
  <defs
     id="defs10" />
  <sodipodi:namedview
     pagecolor="#ffffff"
     bordercolor="#666666"
     borderopacity="1"
     objecttolerance="10"
     gridtolerance="10"
     guidetolerance="10"
     inkscape:pageopacity="0"
     inkscape:pageshadow="2"
     inkscape:window-width="1920"
     inkscape:window-height="1006"
     id="namedview8"
     showgrid="false"
     inkscape:zoom="7.375"
     inkscape:cx="16"
     inkscape:cy="16"
     inkscape:window-x="0"
     inkscape:window-y="0"
     inkscape:window-maximized="1"
     inkscape:current-layer="svg6" />
  <title
     id="title2">cogs</title>
  <path
     d="M11.366 22.564l1.291-1.807-1.414-1.414-1.807 1.291c-0.335-0.187-0.694-0.337-1.071-0.444l-0.365-2.19h-2l-0.365 2.19c-0.377 0.107-0.736 0.256-1.071 0.444l-1.807-1.291-1.414 1.414 1.291 1.807c-0.187 0.335-0.337 0.694-0.443 1.071l-2.19 0.365v2l2.19 0.365c0.107 0.377 0.256 0.736 0.444 1.071l-1.291 1.807 1.414 1.414 1.807-1.291c0.335 0.187 0.694 0.337 1.071 0.444l0.365 2.19h2l0.365-2.19c0.377-0.107 0.736-0.256 1.071-0.444l1.807 1.291 1.414-1.414-1.291-1.807c0.187-0.335 0.337-0.694 0.444-1.071l2.19-0.365v-2l-2.19-0.365c-0.107-0.377-0.256-0.736-0.444-1.071zM7 27c-1.105 0-2-0.895-2-2s0.895-2 2-2 2 0.895 2 2-0.895 2-2 2zM32 12v-2l-2.106-0.383c-0.039-0.251-0.088-0.499-0.148-0.743l1.799-1.159-0.765-1.848-2.092 0.452c-0.132-0.216-0.273-0.426-0.422-0.629l1.219-1.761-1.414-1.414-1.761 1.219c-0.203-0.149-0.413-0.29-0.629-0.422l0.452-2.092-1.848-0.765-1.159 1.799c-0.244-0.059-0.492-0.109-0.743-0.148l-0.383-2.106h-2l-0.383 2.106c-0.251 0.039-0.499 0.088-0.743 0.148l-1.159-1.799-1.848 0.765 0.452 2.092c-0.216 0.132-0.426 0.273-0.629 0.422l-1.761-1.219-1.414 1.414 1.219 1.761c-0.149 0.203-0.29 0.413-0.422 0.629l-2.092-0.452-0.765 1.848 1.799 1.159c-0.059 0.244-0.109 0.492-0.148 0.743l-2.106 0.383v2l2.106 0.383c0.039 0.251 0.088 0.499 0.148 0.743l-1.799 1.159 0.765 1.848 2.092-0.452c0.132 0.216 0.273 0.426 0.422 0.629l-1.219 1.761 1.414 1.414 1.761-1.219c0.203 0.149 0.413 0.29 0.629 0.422l-0.452 2.092 1.848 0.765 1.159-1.799c0.244 0.059 0.492 0.109 0.743 0.148l0.383 2.106h2l0.383-2.106c0.251-0.039 0.499-0.088 0.743-0.148l1.159 1.799 1.848-0.765-0.452-2.092c0.216-0.132 0.426-0.273 0.629-0.422l1.761 1.219 1.414-1.414-1.219-1.761c0.149-0.203 0.29-0.413 0.422-0.629l2.092 0.452 0.765-1.848-1.799-1.159c0.059-0.244 0.109-0.492 0.148-0.743l2.106-0.383zM21 15.35c-2.402 0-4.35-1.948-4.35-4.35s1.948-4.35 4.35-4.35 4.35 1.948 4.35 4.35c0 2.402-1.948 4.35-4.35 4.35z"
     id="path4" />
  <path
     style="fill:#ffffff;stroke-width:0.13559322"
     d="m 20.033583,21.769492 c -0.02905,-0.09322 -0.124424,-0.575276 -0.211938,-1.071236 -0.151065,-0.856108 -0.179894,-0.904793 -0.569657,-0.961998 -0.376104,-0.0552 -0.454886,0.0084 -0.939231,0.757733 -0.29078,0.449894 -0.554164,0.843461 -0.585298,0.874595 -0.03113,0.03113 -0.426447,-0.0868 -0.878474,-0.262079 -0.923968,-0.358276 -0.931596,-0.378108 -0.633204,-1.64621 0.176382,-0.749586 0.172017,-0.792464 -0.100085,-0.983051 -0.407909,-0.285711 -0.500008,-0.261433 -1.369104,0.360913 l -0.7823,0.560194 -0.681322,-0.681322 -0.681322,-0.681323 0.560193,-0.782301 c 0.622346,-0.869095 0.646624,-0.961194 0.360913,-1.369103 -0.190587,-0.272102 -0.233465,-0.276467 -0.98305,-0.100086 -1.268046,0.29838 -1.29066,0.289819 -1.654607,-0.626465 -0.178072,-0.44832 -0.29905,-0.835485 -0.268839,-0.860365 0.03021,-0.02488 0.426371,-0.294291 0.880356,-0.598692 0.751362,-0.503794 0.820072,-0.589954 0.765731,-0.960199 -0.05741,-0.391163 -0.09941,-0.413834 -1.096614,-0.591888 l -1.036917,-0.185145 -0.03935,-0.95287 -0.03934,-0.95287 L 11.101,9.8617604 C 12.111949,9.675166 12.155149,9.6517637 12.238042,9.2458045 12.320065,8.8440988 12.282859,8.7984701 11.464094,8.2966519 10.51083,7.7123995 10.5111,7.7134348 11.008801,6.5523447 c 0.205495,-0.4793998 0.328494,-0.6158221 0.509049,-0.564605 0.130945,0.037144 0.590157,0.1428791 1.02047,0.2349662 0.722136,0.1545372 0.797508,0.1474489 0.978738,-0.092044 C 13.806955,5.7475671 13.775068,5.619955 13.175622,4.764217 L 12.62921,3.9841879 13.307936,3.3054617 13.986662,2.6267356 14.796876,3.1981135 c 0.445617,0.3142579 0.845849,0.571378 0.889405,0.571378 0.04356,0 0.222454,-0.093869 0.397552,-0.2085974 l 0.31836,-0.2085974 -0.233594,-1.0479189 -0.233594,-1.047919 0.86668,-0.35864761 0.866679,-0.35864765 0.569208,0.86657996 c 0.560891,0.8539177 0.857175,1.0295898 1.281799,0.7599998 0.09362,-0.059438 0.246752,-0.5313855 0.340293,-1.0487711 l 0.170075,-0.94070101 0.968533,-0.039572 0.968532,-0.039572 0.165659,0.98872451 c 0.171971,1.0263989 0.27426,1.1865497 0.760085,1.1900381 0.207216,0.00149 0.449552,-0.2441062 0.855156,-0.866652 l 0.566,-0.86872836 0.839758,0.33991039 c 0.461867,0.18695077 0.856362,0.35549897 0.876655,0.37455177 0.02029,0.019053 -0.05508,0.4248174 -0.167486,0.9016993 -0.267961,1.1367656 -0.265563,1.1623307 0.133576,1.4238563 0.33275,0.2180263 0.363489,0.2089716 1.140196,-0.3358572 0.439025,-0.3079583 0.852096,-0.5599242 0.917935,-0.5599242 0.148378,0 1.260916,1.122066 1.260916,1.2717156 0,0.0599 -0.251966,0.4681107 -0.559924,0.9071355 -0.544828,0.7767067 -0.553883,0.8074462 -0.335857,1.1401963 0.261525,0.3991386 0.287091,0.401537 1.423856,0.133577 0.476883,-0.1124114 0.882647,-0.1877806 0.901699,-0.1674874 0.01905,0.020293 0.187601,0.4147881 0.374552,0.8766551 l 0.33991,0.8397584 -0.868728,0.5659988 c -0.622545,0.4056044 -0.86814,0.6479411 -0.866652,0.8551568 0.0035,0.4858248 0.163639,0.5881142 1.190038,0.7600852 l 0.988725,0.1656589 -0.03957,0.968532 -0.03957,0.968533 -0.940701,0.170075 c -0.517386,0.09354 -0.989333,0.246673 -1.048772,0.340293 -0.269589,0.424624 -0.09392,0.720908 0.76,1.281799 l 0.866581,0.569207 -0.358649,0.86668 -0.358646,0.86668 -1.04792,-0.233594 -1.047919,-0.233595 -0.208597,0.318361 c -0.114729,0.175098 -0.208598,0.353996 -0.208598,0.397552 0,0.04356 0.253186,0.438209 0.562635,0.877006 l 0.562635,0.797816 -0.575261,0.687085 c -0.316394,0.377897 -0.620663,0.687086 -0.676155,0.687086 -0.05549,0 -0.44173,-0.244068 -0.858308,-0.542373 -0.826869,-0.592108 -0.987951,-0.631585 -1.376716,-0.337397 -0.239493,0.18123 -0.246581,0.256602 -0.09204,0.978738 0.09209,0.430313 0.197417,0.888248 0.234066,1.017631 0.05105,0.180235 -0.113685,0.31499 -0.704489,0.576271 -0.424118,0.187566 -0.839803,0.338859 -0.923743,0.336208 -0.08394,-0.0027 -0.389841,-0.389836 -0.67978,-0.86041 -0.501404,-0.813785 -0.547778,-0.851377 -0.949152,-0.769422 -0.405723,0.08284 -0.429432,0.126473 -0.614955,1.131596 l -0.192962,1.045429 h -0.929938 c -0.625383,0 -0.947236,-0.05551 -0.982758,-0.169491 z m 2.820371,-6.790628 c 0.874437,-0.405278 1.611044,-1.121516 2.089185,-2.031416 0.322523,-0.613759 0.369778,-0.85887 0.370866,-1.923719 0.0011,-1.0641915 -0.04744,-1.3194832 -0.379246,-1.9951784 -1.312425,-2.6726218 -4.977373,-3.2370621 -7.087717,-1.0915826 -0.824963,0.838698 -1.202452,1.8095409 -1.200215,3.086761 0.0022,1.264869 0.281812,2.019206 1.073032,2.894992 1.323738,1.465219 3.355069,1.88467 5.134095,1.060143 z"
     id="path14"
     inkscape:connector-curvature="0" />
  <path
     style="fill:#ffffff;stroke-width:0.13559322"
     d="m 5.9932203,31.75264 c 0,-0.127666 -0.06736,-0.618932 -0.1496895,-1.091702 C 5.6992664,29.832511 5.6734666,29.792269 5.1316664,29.550595 L 4.5694915,29.299832 3.7316347,29.890594 c -0.4608213,0.324919 -0.89049,0.590762 -0.9548192,0.590762 -0.1448269,0 -1.2581714,-1.122901 -1.2581714,-1.268971 0,-0.05839 0.2658428,-0.483198 0.5907617,-0.94402 L 2.7001676,27.430508 2.4494052,26.868334 C 2.2077308,26.326533 2.1674891,26.300734 1.339062,26.156469 0.86629253,26.07414 0.37502652,26.00678 0.24735966,26.00678 c -0.20135139,0 -0.22684054,-0.12982 -0.192283,-0.97932 L 0.09491525,24.048141 1.0996762,23.880327 C 2.2219363,23.692887 2.2288709,23.688622 2.5052698,23.015742 2.7028559,22.534728 2.7014077,22.530325 2.0540904,21.644057 L 1.4046885,20.754934 2.042595,20.12662 c 0.3508485,-0.345573 0.682535,-0.628315 0.7370811,-0.628315 0.054546,0 0.4655303,0.266578 0.9132983,0.592394 L 4.507098,20.683094 5.1048883,20.468129 5.7026785,20.253165 5.869782,19.129973 6.0368853,18.00678 h 0.9315756 c 1.0476926,0 0.9745825,-0.07938 1.1932904,1.295679 l 0.1521654,0.956697 0.5923671,0.219546 0.5923672,0.219547 0.789657,-0.596359 c 0.434312,-0.327998 0.853225,-0.597985 0.930918,-0.599972 0.16048,-0.0041 1.282469,1.102914 1.282469,1.265358 0,0.05839 -0.266731,0.483198 -0.592736,0.94402 l -0.592736,0.837857 0.211054,0.568253 c 0.21102,0.568163 0.211206,0.568278 1.169007,0.720631 1.376516,0.218956 1.296936,0.145723 1.296936,1.193502 v 0.931576 l -1.123192,0.167103 -1.123193,0.167103 -0.214964,0.597791 -0.214965,0.59779 0.592395,0.814124 c 0.325816,0.447768 0.592394,0.863398 0.592394,0.923622 0,0.143687 -1.129451,1.250708 -1.276049,1.250708 -0.06228,0 -0.487092,-0.265879 -0.94402,-0.590842 L 9.4508475,29.299672 8.8823858,29.542654 c -0.6025966,0.257573 -0.5751512,0.19961 -0.8297013,1.752261 l -0.1000345,0.61017 -0.9797148,0.03984 c -0.8498735,0.03456 -0.9797149,0.0091 -0.9797149,-0.192283 z m 2.1893914,-5.082064 c 1.4106954,-1.004504 0.9928329,-3.191589 -0.6967035,-3.646534 -1.9763807,-0.532184 -3.3981849,2.021452 -1.9160861,3.441392 0.7049327,0.675369 1.8285257,0.763587 2.6127896,0.205142 z"
     id="path16"
     inkscape:connector-curvature="0" />
</svg>
