<?xml version="1.0" encoding="UTF-8" standalone="no"?>
<!-- Generated by IcoMoon.io -->

<svg
   xmlns:dc="http://purl.org/dc/elements/1.1/"
   xmlns:cc="http://creativecommons.org/ns#"
   xmlns:rdf="http://www.w3.org/1999/02/22-rdf-syntax-ns#"
   xmlns:svg="http://www.w3.org/2000/svg"
   xmlns="http://www.w3.org/2000/svg"
   xmlns:sodipodi="http://sodipodi.sourceforge.net/DTD/sodipodi-0.dtd"
   xmlns:inkscape="http://www.inkscape.org/namespaces/inkscape"
   version="1.1"
   width="32"
   height="32"
   viewBox="0 0 32 32"
   id="svg10"
   sodipodi:docname="database-white.svg"
   inkscape:version="0.92.1 r">
  <metadata
     id="metadata16">
    <rdf:RDF>
      <cc:Work
         rdf:about="">
        <dc:format>image/svg+xml</dc:format>
        <dc:type
           rdf:resource="http://purl.org/dc/dcmitype/StillImage" />
        <dc:title>database</dc:title>
      </cc:Work>
    </rdf:RDF>
  </metadata>
  <defs
     id="defs14" />
  <sodipodi:namedview
     pagecolor="#ffffff"
     bordercolor="#666666"
     borderopacity="1"
     objecttolerance="10"
     gridtolerance="10"
     guidetolerance="10"
     inkscape:pageopacity="0"
     inkscape:pageshadow="2"
     inkscape:window-width="1920"
     inkscape:window-height="1006"
     id="namedview12"
     showgrid="false"
     inkscape:zoom="7.375"
     inkscape:cx="16"
     inkscape:cy="16"
     inkscape:window-x="0"
     inkscape:window-y="0"
     inkscape:window-maximized="1"
     inkscape:current-layer="svg10" />
  <title
     id="title2">database</title>
  <path
     d="M16 0c-8.837 0-16 2.239-16 5v4c0 2.761 7.163 5 16 5s16-2.239 16-5v-4c0-2.761-7.163-5-16-5z"
     id="path4" />
  <path
     d="M16 17c-8.837 0-16-2.239-16-5v6c0 2.761 7.163 5 16 5s16-2.239 16-5v-6c0 2.761-7.163 5-16 5z"
     id="path6" />
  <path
     d="M16 26c-8.837 0-16-2.239-16-5v6c0 2.761 7.163 5 16 5s16-2.239 16-5v-6c0 2.761-7.163 5-16 5z"
     id="path8" />
  <path
     style="fill:#ffffff;stroke-width:0.13559322"
     d="M 12.162712,13.798369 C 5.9574845,13.290037 1.1736582,11.636185 0.24444635,9.6780169 -0.04562397,9.0667391 -0.07055523,5.0766323 0.21152541,4.4092042 1.0562465,2.4105184 5.6372014,0.78080723 11.954265,0.23163096 c 2.675434,-0.23258978576 8.236679,-0.0882805 10.611587,0.27536112 4.924669,0.75405572 8.313691,2.12550312 9.134389,3.69644382 0.144211,0.2760422 0.191284,0.9728368 0.191284,2.831453 0,2.2498382 -0.02433,2.5046704 -0.278364,2.9157089 -0.99238,1.6057032 -4.762788,2.9954662 -9.910243,3.6528882 -2.000083,0.255447 -7.443521,0.366643 -9.540206,0.194883 z"
     id="path18"
     inkscape:connector-curvature="0" />
  <path
     style="fill:#ffffff;stroke-width:0.13559322"
     d="M 11.484746,22.745708 C 6.4784697,22.244245 2.394746,20.988164 0.85453931,19.476043 0.08272403,18.718301 0.02711864,18.444606 0.02711864,15.403388 v -2.747696 l 0.32181695,0.472154 c 2.10692321,3.091173 13.32948241,4.807276 22.52564041,3.444519 3.954723,-0.586041 7.255176,-1.800771 8.468156,-3.116698 l 0.548793,-0.595371 v 2.785546 c 0,1.792884 -0.05422,2.891089 -0.152161,3.081716 -0.842742,1.640338 -4.12386,2.981144 -9.232415,3.772759 -1.440584,0.223231 -2.603879,0.288079 -5.801864,0.323421 -2.2,0.02431 -4.549153,-0.0108 -5.220339,-0.07803 z"
     id="path20"
     inkscape:connector-curvature="0" />
  <path
     style="fill:#ffffff;stroke-width:0.13559322"
     d="M 13.450847,31.888264 C 7.8658911,31.554857 2.9680743,30.295552 1.0604544,28.702502 0.12305561,27.919682 0.03341589,27.543415 0.0306034,24.379661 0.0281455,21.614832 0.0294748,21.602201 0.27971845,22.012558 1.3399951,23.751232 5.5228052,25.222911 11.040212,25.798527 c 2.58896,0.2701 7.382945,0.270708 9.948726,0.0013 4.93436,-0.51818 8.778513,-1.739222 10.326316,-3.280009 l 0.576271,-0.573659 v 2.699469 c 0,1.484708 -0.05443,2.842624 -0.12095,3.017592 -0.491182,1.291909 -3.489025,2.741543 -7.201083,3.48215 -2.89452,0.577496 -8.082758,0.924168 -11.118645,0.742933 z"
     id="path22"
     inkscape:connector-curvature="0" />
</svg>
