<?xml version="1.0" encoding="UTF-8" standalone="no"?>
<svg
   xmlns:dc="http://purl.org/dc/elements/1.1/"
   xmlns:cc="http://creativecommons.org/ns#"
   xmlns:rdf="http://www.w3.org/1999/02/22-rdf-syntax-ns#"
   xmlns:svg="http://www.w3.org/2000/svg"
   xmlns="http://www.w3.org/2000/svg"
   viewBox="0 0 1066.6667 800"
   height="800"
   width="1066.6667"
   xml:space="preserve"
   id="svg2"
   version="1.1"><metadata
     id="metadata8"><rdf:RDF><cc:Work
         rdf:about=""><dc:format>image/svg+xml</dc:format><dc:type
           rdf:resource="http://purl.org/dc/dcmitype/StillImage" /></cc:Work></rdf:RDF></metadata><defs
     id="defs6"><clipPath
       id="clipPath18"
       clipPathUnits="userSpaceOnUse"><path
         id="path16"
         d="M 292.641,259.475 V 224.153 L 179.466,158.806 66.292,224.153 v 130.696 l 113.174,65.347 113.175,-65.347 v -36.862 h 22.327 v 49.717 L 179.466,445.907 43.964,367.704 V 211.299 l 135.502,-78.203 135.502,78.203 v 48.176 z" /></clipPath><linearGradient
       id="linearGradient28"
       spreadMethod="pad"
       gradientTransform="matrix(271.00391,0,0,-271.00391,43.964356,289.50195)"
       gradientUnits="userSpaceOnUse"
       y2="0"
       x2="1"
       y1="0"
       x1="0"><stop
         id="stop24"
         offset="0"
         style="stop-opacity:1;stop-color:#ba332a" /><stop
         id="stop26"
         offset="1"
         style="stop-opacity:1;stop-color:#e9341f" /></linearGradient><clipPath
       id="clipPath38"
       clipPathUnits="userSpaceOnUse"><path
         id="path36"
         d="m 228,299 h -9 v 13.787 l -40,23.286 -40,-23.286 v -46.571 l 40,-23.286 40,23.286 V 278 h 9 V 261.635 L 179.5,233.768 131,261.635 v 55.733 l 48.5,27.866 48.5,-27.866 z m 30.073,35.795 -78.685,45.429 -78.607,-45.294 0.078,-90.723 78.685,-45.429 78.607,45.294 z" /></clipPath><linearGradient
       id="linearGradient48"
       spreadMethod="pad"
       gradientTransform="matrix(157.37012,0,0,-157.37012,100.78125,289.50098)"
       gradientUnits="userSpaceOnUse"
       y2="0"
       x2="1"
       y1="0"
       x1="0"><stop
         id="stop44"
         offset="0"
         style="stop-opacity:1;stop-color:#ba332a" /><stop
         id="stop46"
         offset="1"
         style="stop-opacity:1;stop-color:#e9341f" /></linearGradient><clipPath
       id="clipPath58"
       clipPathUnits="userSpaceOnUse"><path
         id="path56"
         d="M 0,600 H 800 V 0 H 0 Z" /></clipPath></defs><g
     transform="matrix(1.3333333,0,0,-1.3333333,0,800)"
     id="g10"><g
       id="g12"><g
         clip-path="url(#clipPath18)"
         id="g14"><g
           id="g20"><g
             id="g22"><path
               id="path30"
               style="fill:url(#linearGradient28);stroke:none"
               d="M 292.641,259.475 V 224.153 L 179.466,158.806 66.292,224.153 v 130.696 l 113.174,65.347 113.175,-65.347 v -36.862 h 22.327 v 49.717 L 179.466,445.907 43.964,367.704 V 211.299 l 135.502,-78.203 135.502,78.203 v 48.176 z" /></g></g></g></g><g
       id="g32"><g
         clip-path="url(#clipPath38)"
         id="g34"><g
           id="g40"><g
             id="g42"><path
               id="path50"
               style="fill:url(#linearGradient48);stroke:none"
               d="m 228,299 h -9 v 13.787 l -40,23.286 -40,-23.286 v -46.571 l 40,-23.286 40,23.286 V 278 h 9 V 261.635 L 179.5,233.768 131,261.635 v 55.733 l 48.5,27.866 48.5,-27.866 z m 30.073,35.795 -78.685,45.429 -78.607,-45.294 0.078,-90.723 78.685,-45.429 78.607,45.294 z" /></g></g></g></g><g
       id="g52"><g
         clip-path="url(#clipPath58)"
         id="g54"><g
           transform="translate(393.5659,262.5234)"
           id="g60"><path
             id="path62"
             style="fill:#e9341f;fill-opacity:1;fill-rule:nonzero;stroke:none"
             d="m 0,0 c 0,5.85 -1.95,10.499 -5.85,14.249 -2.25,2.25 -5.1,4.05 -8.549,5.55 -1.5,-0.6 -3,-1.35 -4.651,-1.949 -6.149,-2.551 -12.299,-4.051 -16.949,-5.101 V -17.25 h 7.2 c 9.449,0 17.099,1.65 22.049,4.801 C -2.101,-9.45 0,-5.551 0,0 M -35.999,62.697 V 28.948 c 3.45,0.75 7.5,1.95 11.399,3.601 5.55,2.25 9.901,4.799 12.9,7.799 3.15,3 4.65,6.15 4.65,9.75 0,5.4 -1.95,7.499 -3.599,8.699 -4.201,3.15 -12.3,3.9 -18.15,3.9 z M 15.598,0 c 0,-5.551 -1.199,-10.5 -3.599,-15 C 9.6,-19.199 6.149,-22.8 1.8,-25.649 c -7.65,-4.8 -17.999,-7.35 -30.599,-7.35 h -9.9 -14.699 V 78.296 h 17.399 7.2 c 12.299,0 21.299,-2.25 27.599,-6.9 3.45,-2.549 6,-5.849 7.649,-9.599 1.501,-3.45 2.251,-7.35 2.251,-11.699 0,-6 -1.951,-13.35 -8.7,-20.4 1.8,-1.2 3.449,-2.55 5.1,-4.05 3.299,-3.299 5.85,-6.899 7.649,-10.949 C 14.7,10.199 15.598,5.25 15.598,0" /></g><g
           transform="translate(453.416,312.1709)"
           id="g64"><path
             id="path66"
             style="fill:#e9341f;fill-opacity:1;fill-rule:nonzero;stroke:none"
             d="m 0,0 c -7.199,-7.2 -11.25,-16.8 -11.25,-26.999 0,-10.199 4.051,-19.799 11.25,-26.998 7.199,-7.2 16.799,-11.25 26.998,-11.25 10.201,0 19.801,4.05 27,11.25 7.199,7.199 11.25,16.799 11.25,26.998 C 65.248,-16.8 61.197,-7.2 53.998,0 46.799,7.2 37.199,11.25 26.998,11.25 16.799,11.25 7.199,7.2 0,0 m 5.4,-78.297 c -6.75,2.85 -12.599,6.901 -17.699,12 -5.099,5.1 -9.15,10.949 -12,17.699 -2.849,6.749 -4.349,14.099 -4.349,21.599 0,7.5 1.5,14.85 4.349,21.749 2.85,6.6 6.901,12.45 12,17.7 5.1,5.099 10.949,8.999 17.699,11.849 6.75,2.85 14.1,4.35 21.598,4.35 7.5,0 14.85,-1.5 21.75,-4.35 6.6,-2.85 12.449,-6.75 17.699,-11.849 5.1,-5.25 9,-11.1 11.85,-17.7 2.849,-6.899 4.349,-14.249 4.349,-21.749 0,-7.5 -1.5,-14.85 -4.349,-21.599 -2.85,-6.75 -6.75,-12.599 -11.85,-17.699 -5.25,-5.099 -11.099,-9.15 -17.699,-12 -6.9,-2.849 -14.25,-4.349 -21.75,-4.349 -7.498,0 -14.848,1.5 -21.598,4.349" /></g><g
           transform="translate(619.6152,229.5244)"
           id="g68"><path
             id="path70"
             style="fill:#e9341f;fill-opacity:1;fill-rule:nonzero;stroke:none"
             d="m 0,0 h -46.648 -17.25 v 111.295 h 17.4 V 15.749 l 46.498,0 z" /></g><g
           transform="translate(652.251,229.5244)"
           id="g72"><path
             id="path74"
             style="fill:none;stroke:#e9341f;stroke-width:4;stroke-linecap:butt;stroke-linejoin:miter;stroke-miterlimit:10;stroke-dasharray:none;stroke-opacity:1"
             d="m 0,0 v 76.646 l -13.799,-10.349 -10.349,13.95 41.547,31.049 V 0 Z" /></g><g
           transform="translate(691.4004,229.5244)"
           id="g76"><path
             id="path78"
             style="fill:none;stroke:#e9341f;stroke-width:4;stroke-linecap:butt;stroke-linejoin:miter;stroke-miterlimit:10;stroke-dasharray:none;stroke-opacity:1"
             d="M 0,0 43.198,93.896 H 0.301 v 17.4 H 70.497 L 19.199,0 Z" /></g><g
           transform="translate(409.6592,139.8008)"
           id="g80"><path
             id="path82"
             style="fill:#ba332a;fill-opacity:1;fill-rule:nonzero;stroke:none"
             d="m 0,0 c -0.945,-3.24 -3.87,-5.805 -7.515,-6.525 -0.674,-0.135 -1.35,-0.18 -2.025,-0.18 -1.35,0 -2.699,0.225 -3.96,0.72 -2.114,0.855 -3.96,2.25 -5.534,4.275 l 4.139,3.239 c 0.946,-1.259 2.071,-2.159 3.286,-2.609 0.989,-0.405 2.069,-0.495 3.059,-0.271 1.71,0.316 3.105,1.441 3.51,2.79 0.45,1.531 -0.585,2.88 -1.53,3.781 -1.485,1.394 -3.914,3.779 -4.095,3.96 l -4.095,3.869 c -1.26,1.215 -2.115,2.565 -2.564,4.005 -0.45,1.395 -0.495,2.88 -0.09,4.23 0.404,1.44 1.26,2.699 2.475,3.735 1.125,0.945 2.519,1.62 4.004,1.889 1.621,0.361 3.331,0.226 4.95,-0.359 1.71,-0.675 3.24,-1.8 4.545,-3.375 l -4.095,-3.285 c -1.71,2.07 -3.465,2.07 -4.409,1.889 -1.171,-0.224 -2.16,-0.989 -2.431,-1.934 -0.18,-0.63 -0.135,-1.665 1.26,-3.015 l 5.58,-5.354 c 0.81,-0.811 1.8,-1.755 2.52,-2.431 C -1.575,7.739 -0.585,6.255 -0.09,4.68 0.404,3.149 0.45,1.529 0,0" /></g><g
           transform="translate(418.7949,135.751)"
           id="g84"><path
             id="path86"
             style="fill:#ba332a;fill-opacity:1;fill-rule:nonzero;stroke:none"
             d="m 0,0 c -1.306,0.989 -2.295,2.204 -2.97,3.6 -0.765,1.53 -1.125,3.239 -1.125,5.085 v 22.048 h 5.22 V 8.685 c 0,-1.981 0.72,-3.51 2.069,-4.545 1.26,-0.991 3.106,-1.576 5.085,-1.576 1.935,0 3.781,0.585 5.085,1.576 1.35,1.035 2.025,2.564 2.025,4.545 v 22.048 h 5.265 V 8.685 C 20.654,6.839 20.249,5.13 19.529,3.6 18.809,2.204 17.819,0.989 16.559,0 14.354,-1.71 11.429,-2.655 8.279,-2.655 5.13,-2.655 2.204,-1.71 0,0" /></g><g
           transform="translate(470.6338,135.8408)"
           id="g88"><path
             id="path90"
             style="fill:#ba332a;fill-opacity:1;fill-rule:nonzero;stroke:none"
             d="m 0,0 c -0.855,-0.54 -1.755,-1.035 -2.7,-1.44 -2.071,-0.855 -4.275,-1.305 -6.525,-1.305 -2.25,0 -4.455,0.45 -6.48,1.305 -2.024,0.855 -3.779,2.07 -5.31,3.6 -1.529,1.529 -2.745,3.284 -3.599,5.31 -0.856,2.024 -1.305,4.229 -1.305,6.479 0,2.25 0.449,4.455 1.305,6.525 0.854,1.98 2.07,3.78 3.599,5.31 1.531,1.529 3.286,2.744 5.31,3.555 2.025,0.899 4.23,1.305 6.48,1.305 2.25,0 4.454,-0.406 6.525,-1.305 0.224,-0.09 0.495,-0.226 0.72,-0.316 v -6.165 c -2.025,1.665 -4.545,2.566 -7.245,2.566 -3.06,0 -5.94,-1.17 -8.099,-3.375 -2.16,-2.16 -3.375,-5.04 -3.375,-8.1 0,-3.059 1.215,-5.939 3.375,-8.099 2.159,-2.161 5.039,-3.375 8.099,-3.375 3.06,0 5.94,1.214 8.1,3.375 C -0.721,6.255 -0.36,6.659 0,7.109 Z" /></g><g
           transform="translate(486.4736,149.0703)"
           id="g92"><path
             id="path94"
             style="fill:#ba332a;fill-opacity:1;fill-rule:nonzero;stroke:none"
             d="M 0,0 C 2.16,0 3.78,0.63 4.815,1.8 6.075,3.149 6.3,5.039 6.3,6.345 6.3,7.694 6.075,9.584 4.815,10.935 3.78,12.104 2.16,12.689 0,12.689 H -4.68 V 0 Z M 13.455,-15.975 H 7.56 L -0.854,-4.68 H -4.68 V -15.975 H -9.899 V 17.414 H -5.489 0 c 4.41,0 6.975,-1.8 8.325,-3.33 1.755,-1.935 2.699,-4.635 2.699,-7.739 0,-3.061 -0.944,-5.76 -2.699,-7.696 -0.81,-0.899 -2.07,-1.934 -3.87,-2.564 z" /></g><g
           transform="translate(509.2441,152.8945)"
           id="g96"><path
             id="path98"
             style="fill:#ba332a;fill-opacity:1;fill-rule:nonzero;stroke:none"
             d="M 0,0 H 12.194 V -4.725 H 0 v -10.349 h 14.805 v -4.725 H -0.045 -5.22 V 13.59 h 5.175 14.85 V 8.91 L 0,8.91 Z" /></g><path
           id="path100"
           style="fill:#ba332a;fill-opacity:1;fill-rule:nonzero;stroke:none"
           d="m 543.713,152.04 h 14.039 v -4.5 h -14.039 z" /><g
           transform="translate(594.2461,142.9951)"
           id="g102"><path
             id="path104"
             style="fill:#ba332a;fill-opacity:1;fill-rule:nonzero;stroke:none"
             d="M 0,0 C 0,1.755 -0.585,3.15 -1.755,4.275 -2.43,4.95 -3.285,5.49 -4.32,5.939 -4.77,5.76 -5.22,5.535 -5.715,5.354 -7.56,4.59 -9.404,4.14 -10.8,3.825 v -9 h 2.16 c 2.835,0 5.13,0.495 6.615,1.441 C -0.63,-2.835 0,-1.665 0,0 M -10.8,18.81 V 8.685 c 1.035,0.225 2.25,0.585 3.42,1.08 1.665,0.674 2.97,1.44 3.87,2.339 0.945,0.901 1.395,1.845 1.395,2.925 0,1.62 -0.585,2.25 -1.08,2.611 -1.26,0.944 -3.69,1.17 -5.445,1.17 z M 4.68,0 C 4.68,-1.665 4.319,-3.149 3.6,-4.5 2.88,-5.76 1.845,-6.84 0.54,-7.694 -1.755,-9.135 -4.86,-9.899 -8.64,-9.899 h -2.969 -4.411 v 33.388 h 5.22 2.16 c 3.69,0 6.39,-0.675 8.28,-2.07 1.035,-0.765 1.799,-1.755 2.295,-2.88 0.45,-1.034 0.674,-2.204 0.674,-3.51 C 2.609,13.229 2.024,11.024 0,8.91 0.54,8.55 1.035,8.145 1.53,7.695 2.52,6.705 3.285,5.625 3.825,4.41 4.41,3.061 4.68,1.575 4.68,0" /></g><g
           transform="translate(612.2012,157.8896)"
           id="g106"><path
             id="path108"
             style="fill:#ba332a;fill-opacity:1;fill-rule:nonzero;stroke:none"
             d="m 0,0 c -2.16,-2.16 -3.375,-5.04 -3.375,-8.1 0,-3.059 1.215,-5.939 3.375,-8.099 2.16,-2.16 5.04,-3.375 8.1,-3.375 3.06,0 5.94,1.215 8.099,3.375 2.16,2.16 3.375,5.04 3.375,8.099 0,3.06 -1.215,5.94 -3.375,8.1 C 14.04,2.16 11.16,3.375 8.1,3.375 5.04,3.375 2.16,2.16 0,0 m 1.62,-23.489 c -2.025,0.855 -3.78,2.07 -5.309,3.6 -1.531,1.53 -2.746,3.285 -3.601,5.31 -0.855,2.024 -1.305,4.229 -1.305,6.479 0,2.25 0.45,4.455 1.305,6.525 0.855,1.98 2.07,3.735 3.601,5.31 1.529,1.53 3.284,2.7 5.309,3.555 2.025,0.855 4.23,1.305 6.48,1.305 2.25,0 4.455,-0.45 6.525,-1.305 1.979,-0.855 3.734,-2.025 5.31,-3.555 1.529,-1.575 2.699,-3.33 3.554,-5.31 0.855,-2.07 1.305,-4.275 1.305,-6.525 0,-2.25 -0.45,-4.455 -1.305,-6.479 -0.855,-2.025 -2.025,-3.78 -3.554,-5.31 -1.576,-1.53 -3.331,-2.745 -5.31,-3.6 -2.07,-0.855 -4.275,-1.305 -6.525,-1.305 -2.25,0 -4.455,0.45 -6.48,1.305" /></g><g
           transform="translate(662.0605,133.0957)"
           id="g110"><path
             id="path112"
             style="fill:#ba332a;fill-opacity:1;fill-rule:nonzero;stroke:none"
             d="m 0,0 h -13.994 -5.175 v 33.389 h 5.22 V 4.725 L 0,4.725 Z" /></g><path
           id="path114"
           style="fill:#ba332a;fill-opacity:1;fill-rule:nonzero;stroke:none"
           d="m 665.886,166.484 h 5.22 v -33.389 h -5.22 z" /><g
           transform="translate(690.8145,144.4805)"
           id="g116"><path
             id="path118"
             style="fill:#ba332a;fill-opacity:1;fill-rule:nonzero;stroke:none"
             d="m 0,0 8.775,22.004 h 5.669 L 0.136,-12.87 l -15.3,34.874 h 5.76 z" /></g><path
           id="path120"
           style="fill:#ba332a;fill-opacity:1;fill-rule:nonzero;stroke:none"
           d="m 709.895,166.484 h 5.22 v -33.389 h -5.22 z" /><g
           transform="translate(738.2432,144.9307)"
           id="g122"><path
             id="path124"
             style="fill:#ba332a;fill-opacity:1;fill-rule:nonzero;stroke:none"
             d="M 0,0 -4.05,10.169 -8.1,0 Z m 1.891,-4.681 h -11.88 l -2.835,-7.154 h -5.76 L -4.05,23.084 10.439,-11.835 H 4.725 Z" /></g></g></g></g></svg>