<?xml version="1.0" encoding="UTF-8" standalone="no"?>
<svg
   xmlns:dc="http://purl.org/dc/elements/1.1/"
   xmlns:cc="http://creativecommons.org/ns#"
   xmlns:rdf="http://www.w3.org/1999/02/22-rdf-syntax-ns#"
   xmlns:svg="http://www.w3.org/2000/svg"
   xmlns="http://www.w3.org/2000/svg"
   xmlns:sodipodi="http://sodipodi.sourceforge.net/DTD/sodipodi-0.dtd"
   xmlns:inkscape="http://www.inkscape.org/namespaces/inkscape"
   viewBox="0 0 1066.6667 800"
   height="800"
   width="1066.6667"
   xml:space="preserve"
   id="svg2"
   version="1.1"
   sodipodi:docname="logosmall.svg"
   inkscape:version="0.92.1 r"><sodipodi:namedview
     pagecolor="#ffffff"
     bordercolor="#666666"
     borderopacity="1"
     objecttolerance="10"
     gridtolerance="10"
     guidetolerance="10"
     inkscape:pageopacity="0"
     inkscape:pageshadow="2"
     inkscape:window-width="1366"
     inkscape:window-height="693"
     id="namedview574"
     showgrid="false"
     inkscape:zoom="0.417193"
     inkscape:cx="28.651889"
     inkscape:cy="515.96655"
     inkscape:window-x="0"
     inkscape:window-y="0"
     inkscape:window-maximized="1"
     inkscape:current-layer="svg2" /><metadata
     id="metadata8"><rdf:RDF><cc:Work
         rdf:about=""><dc:format>image/svg+xml</dc:format><dc:type
           rdf:resource="http://purl.org/dc/dcmitype/StillImage" /><dc:title></dc:title></cc:Work></rdf:RDF></metadata><defs
     id="defs6"><clipPath
       id="clipPath18"
       clipPathUnits="userSpaceOnUse"><path
         id="path16"
         d="M 292.641,259.475 V 224.153 L 179.466,158.806 66.292,224.153 v 130.696 l 113.174,65.347 113.175,-65.347 v -36.862 h 22.327 v 49.717 L 179.466,445.907 43.964,367.704 V 211.299 l 135.502,-78.203 135.502,78.203 v 48.176 z" /></clipPath><linearGradient
       id="linearGradient28"
       spreadMethod="pad"
       gradientTransform="matrix(271.00391,0,0,-271.00391,43.964356,289.50195)"
       gradientUnits="userSpaceOnUse"
       y2="0"
       x2="1"
       y1="0"
       x1="0"><stop
         id="stop24"
         offset="0"
         style="stop-opacity:1;stop-color:#ba332a" /><stop
         id="stop26"
         offset="1"
         style="stop-opacity:1;stop-color:#e9341f" /></linearGradient><clipPath
       id="clipPath38"
       clipPathUnits="userSpaceOnUse"><path
         id="path36"
         d="m 228,299 h -9 v 13.787 l -40,23.286 -40,-23.286 v -46.571 l 40,-23.286 40,23.286 V 278 h 9 V 261.635 L 179.5,233.768 131,261.635 v 55.733 l 48.5,27.866 48.5,-27.866 z m 30.073,35.795 -78.685,45.429 -78.607,-45.294 0.078,-90.723 78.685,-45.429 78.607,45.294 z" /></clipPath><linearGradient
       id="linearGradient48"
       spreadMethod="pad"
       gradientTransform="matrix(157.37012,0,0,-157.37012,100.78125,289.50098)"
       gradientUnits="userSpaceOnUse"
       y2="0"
       x2="1"
       y1="0"
       x1="0"><stop
         id="stop44"
         offset="0"
         style="stop-opacity:1;stop-color:#ba332a" /><stop
         id="stop46"
         offset="1"
         style="stop-opacity:1;stop-color:#e9341f" /></linearGradient><clipPath
       id="clipPath58"
       clipPathUnits="userSpaceOnUse"><path
         id="path56"
         d="M 0,600 H 800 V 0 H 0 Z" /></clipPath></defs><g
     transform="matrix(1.3333333,0,0,-1.3333333,0,800)"
     id="g10"><g
       id="g12"><g
         clip-path="url(#clipPath18)"
         id="g14"><g
           id="g20"><g
             id="g22"><path
               id="path30"
               style="fill:url(#linearGradient28);stroke:none"
               d="M 292.641,259.475 V 224.153 L 179.466,158.806 66.292,224.153 v 130.696 l 113.174,65.347 113.175,-65.347 v -36.862 h 22.327 v 49.717 L 179.466,445.907 43.964,367.704 V 211.299 l 135.502,-78.203 135.502,78.203 v 48.176 z" /></g></g></g></g><g
       id="g32"><g
         clip-path="url(#clipPath38)"
         id="g34"><g
           id="g40"><g
             id="g42"><path
               id="path50"
               style="fill:url(#linearGradient48);stroke:none"
               d="m 228,299 h -9 v 13.787 l -40,23.286 -40,-23.286 v -46.571 l 40,-23.286 40,23.286 V 278 h 9 V 261.635 L 179.5,233.768 131,261.635 v 55.733 l 48.5,27.866 48.5,-27.866 z m 30.073,35.795 -78.685,45.429 -78.607,-45.294 0.078,-90.723 78.685,-45.429 78.607,45.294 z" /></g></g></g></g><g
       id="g52"><g
         clip-path="url(#clipPath58)"
         id="g54"><g
           transform="translate(393.5659,262.5234)"
           id="g60"><path
             id="path62"
             style="fill:#e9341f;fill-opacity:1;fill-rule:nonzero;stroke:none"
             d="m 0,0 c 0,5.85 -1.95,10.499 -5.85,14.249 -2.25,2.25 -5.1,4.05 -8.549,5.55 -1.5,-0.6 -3,-1.35 -4.651,-1.949 -6.149,-2.551 -12.299,-4.051 -16.949,-5.101 V -17.25 h 7.2 c 9.449,0 17.099,1.65 22.049,4.801 C -2.101,-9.45 0,-5.551 0,0 M -35.999,62.697 V 28.948 c 3.45,0.75 7.5,1.95 11.399,3.601 5.55,2.25 9.901,4.799 12.9,7.799 3.15,3 4.65,6.15 4.65,9.75 0,5.4 -1.95,7.499 -3.599,8.699 -4.201,3.15 -12.3,3.9 -18.15,3.9 z M 15.598,0 c 0,-5.551 -1.199,-10.5 -3.599,-15 C 9.6,-19.199 6.149,-22.8 1.8,-25.649 c -7.65,-4.8 -17.999,-7.35 -30.599,-7.35 h -9.9 -14.699 V 78.296 h 17.399 7.2 c 12.299,0 21.299,-2.25 27.599,-6.9 3.45,-2.549 6,-5.849 7.649,-9.599 1.501,-3.45 2.251,-7.35 2.251,-11.699 0,-6 -1.951,-13.35 -8.7,-20.4 1.8,-1.2 3.449,-2.55 5.1,-4.05 3.299,-3.299 5.85,-6.899 7.649,-10.949 C 14.7,10.199 15.598,5.25 15.598,0" /></g><g
           transform="translate(453.416,312.1709)"
           id="g64"><path
             id="path66"
             style="fill:#e9341f;fill-opacity:1;fill-rule:nonzero;stroke:none"
             d="m 0,0 c -7.199,-7.2 -11.25,-16.8 -11.25,-26.999 0,-10.199 4.051,-19.799 11.25,-26.998 7.199,-7.2 16.799,-11.25 26.998,-11.25 10.201,0 19.801,4.05 27,11.25 7.199,7.199 11.25,16.799 11.25,26.998 C 65.248,-16.8 61.197,-7.2 53.998,0 46.799,7.2 37.199,11.25 26.998,11.25 16.799,11.25 7.199,7.2 0,0 m 5.4,-78.297 c -6.75,2.85 -12.599,6.901 -17.699,12 -5.099,5.1 -9.15,10.949 -12,17.699 -2.849,6.749 -4.349,14.099 -4.349,21.599 0,7.5 1.5,14.85 4.349,21.749 2.85,6.6 6.901,12.45 12,17.7 5.1,5.099 10.949,8.999 17.699,11.849 6.75,2.85 14.1,4.35 21.598,4.35 7.5,0 14.85,-1.5 21.75,-4.35 6.6,-2.85 12.449,-6.75 17.699,-11.849 5.1,-5.25 9,-11.1 11.85,-17.7 2.849,-6.899 4.349,-14.249 4.349,-21.749 0,-7.5 -1.5,-14.85 -4.349,-21.599 -2.85,-6.75 -6.75,-12.599 -11.85,-17.699 -5.25,-5.099 -11.099,-9.15 -17.699,-12 -6.9,-2.849 -14.25,-4.349 -21.75,-4.349 -7.498,0 -14.848,1.5 -21.598,4.349" /></g><g
           transform="translate(619.6152,229.5244)"
           id="g68"><path
             id="path70"
             style="fill:#e9341f;fill-opacity:1;fill-rule:nonzero;stroke:none"
             d="m 0,0 h -46.648 -17.25 v 111.295 h 17.4 V 15.749 l 46.498,0 z" /></g><g
           transform="translate(652.251,229.5244)"
           id="g72"><path
             id="path74"
             style="fill:none;stroke:#e9341f;stroke-width:4;stroke-linecap:butt;stroke-linejoin:miter;stroke-miterlimit:10;stroke-dasharray:none;stroke-opacity:1"
             d="m 0,0 v 76.646 l -13.799,-10.349 -10.349,13.95 41.547,31.049 V 0 Z" /></g><g
           transform="translate(691.4004,229.5244)"
           id="g76"><path
             id="path78"
             style="fill:none;stroke:#e9341f;stroke-width:4;stroke-linecap:butt;stroke-linejoin:miter;stroke-miterlimit:10;stroke-dasharray:none;stroke-opacity:1"
             d="M 0,0 43.198,93.896 H 0.301 v 17.4 H 70.497 L 19.199,0 Z" /></g><g
           transform="translate(409.6592,139.8008)"
           id="g80" /><g
           transform="translate(418.7949,135.751)"
           id="g84" /><g
           transform="translate(470.6338,135.8408)"
           id="g88" /><g
           transform="translate(486.4736,149.0703)"
           id="g92" /><g
           transform="translate(509.2441,152.8945)"
           id="g96" /><g
           transform="translate(594.2461,142.9951)"
           id="g102" /><g
           transform="translate(612.2012,157.8896)"
           id="g106" /><g
           transform="translate(662.0605,133.0957)"
           id="g110" /><g
           transform="translate(690.8145,144.4805)"
           id="g116" /><g
           transform="translate(738.2432,144.9307)"
           id="g122" /></g></g></g></svg>