<?xml version="1.0" encoding="utf-8"?>
<!-- Generator: Adobe Illustrator 19.0.0, SVG Export Plug-In . SVG Version: 6.00 Build 0)  -->
<svg version="1.1" id="Capa_1" xmlns="http://www.w3.org/2000/svg" xmlns:xlink="http://www.w3.org/1999/xlink" x="0px" y="0px"
	 viewBox="0 0 841.9 841.9" style="enable-background:new 0 0 841.9 841.9;" xml:space="preserve">
<style type="text/css">
	.st0{fill:#FFFFFF;stroke:#FFFFFF;stroke-width:4;stroke-miterlimit:10;}
	.st1{fill:#FFFFFF;}
</style>
<path id="XMLID_3_" class="st0" d="M702.1,217.6l-37.5,50.8L625.3,219l22.9-0.4c-0.9-46.5-40.8-83.5-89.1-82.7l-0.6-30.1
	C624,104.7,678.2,155,679.4,218L702.1,217.6"/>
<path id="XMLID_44_" class="st0" d="M609.2,665.2l-50.6-37.7l49.6-39.1l0.3,22.9c46.5-0.6,83.8-40.4,83.1-88.7l30.1-0.4
	c0.9,65.5-49.7,119.4-112.8,120.3L609.2,665.2"/>
<path id="XMLID_45_" class="st0" d="M165.7,533.4l37.7-50.6l39.1,49.6l-22.9,0.3c0.6,46.5,40.4,83.7,88.7,83.1l0.4,30.1
	c-65.5,0.9-119.5-49.6-120.4-112.7L165.7,533.4"/>
<path id="XMLID_63_" class="st0" d="M270.2,98.1L320,137l-50.5,37.9l0.2-22.9c-46.5-0.4-84.7,38.5-85.1,86.7l-30.1-0.3
	C155.2,173,207,120.3,270,120.9L270.2,98.1"/>
<g id="XMLID_4_">
	<path id="XMLID_5_" class="st1" d="M480,22.8h-93.5c-7.8,0-14.2,6.1-14.2,13.6v43.1v85.2v43.1c0,7.5,6.4,13.6,14.2,13.6H480
		c7.8,0,14.2-6.1,14.2-13.6v-43.1V79.5V36.4C494.1,28.9,487.8,22.8,480,22.8z M406.6,205.8h-15.3c-2.8,0-5.1-2.2-5.1-4.9
		c0-2.7,2.3-4.9,5.1-4.9h15.3c2.8,0,5.1,2.2,5.1,4.9C411.7,203.6,409.4,205.8,406.6,205.8z M406.6,187.1h-15.3
		c-2.8,0-5.1-2.2-5.1-4.9s2.3-4.9,5.1-4.9h15.3c2.8,0,5.1,2.2,5.1,4.9S409.4,187.1,406.6,187.1z M406.6,168.5h-15.3
		c-2.8,0-5.1-2.2-5.1-4.9c0-2.7,2.3-4.9,5.1-4.9h15.3c2.8,0,5.1,2.2,5.1,4.9C411.7,166.3,409.4,168.5,406.6,168.5z M406.6,149.8
		h-15.3c-2.8,0-5.1-2.2-5.1-4.9s2.3-4.9,5.1-4.9h15.3c2.8,0,5.1,2.2,5.1,4.9S409.4,149.8,406.6,149.8z M440.8,205.8h-15.3
		c-2.8,0-5.1-2.2-5.1-4.9c0-2.7,2.3-4.9,5.1-4.9h15.3c2.8,0,5.1,2.2,5.1,4.9C445.9,203.6,443.7,205.8,440.8,205.8z M440.8,187.1
		h-15.3c-2.8,0-5.1-2.2-5.1-4.9s2.3-4.9,5.1-4.9h15.3c2.8,0,5.1,2.2,5.1,4.9S443.7,187.1,440.8,187.1z M440.8,168.5h-15.3
		c-2.8,0-5.1-2.2-5.1-4.9c0-2.7,2.3-4.9,5.1-4.9h15.3c2.8,0,5.1,2.2,5.1,4.9C445.9,166.3,443.7,168.5,440.8,168.5z M440.8,149.8
		h-15.3c-2.8,0-5.1-2.2-5.1-4.9s2.3-4.9,5.1-4.9h15.3c2.8,0,5.1,2.2,5.1,4.9S443.7,149.8,440.8,149.8z M475.1,205.8h-15.3
		c-2.8,0-5.1-2.2-5.1-4.9c0-2.7,2.3-4.9,5.1-4.9h15.3c2.8,0,5.1,2.2,5.1,4.9C480.2,203.6,477.9,205.8,475.1,205.8z M475.1,187.1
		h-15.3c-2.8,0-5.1-2.2-5.1-4.9s2.3-4.9,5.1-4.9h15.3c2.8,0,5.1,2.2,5.1,4.9S477.9,187.1,475.1,187.1z M475.1,168.5h-15.3
		c-2.8,0-5.1-2.2-5.1-4.9c0-2.7,2.3-4.9,5.1-4.9h15.3c2.8,0,5.1,2.2,5.1,4.9C480.2,166.3,477.9,168.5,475.1,168.5z M475.1,149.8
		h-15.3c-2.8,0-5.1-2.2-5.1-4.9s2.3-4.9,5.1-4.9h15.3c2.8,0,5.1,2.2,5.1,4.9S477.9,149.8,475.1,149.8z M480.5,128.7H386V38.8h94.5
		V128.7z"/>
</g>
<g id="XMLID_21_">
	<path id="XMLID_22_" class="st1" d="M834,356.8h-15.4c-1.2,0-2.3,0.4-3.1,1.2l-3.3,3c-5.5-12.2-13.5-24.3-24.2-36.7
		c-5.8-6.7-14.4-10.6-23.6-10.6h-61.7c-9.2,0-17.8,3.9-23.6,10.6c-11.1,12.9-18.9,24.6-24.3,36.7l-3.2-3c-0.8-0.8-2-1.2-3.1-1.2H633
		c-2.5,0-4.5,1.9-4.5,4.3v10c0,2.3,1.9,4.2,4.3,4.3l15.8,0.9c-2.4,6.6-4.3,16.5-4.3,30.5c0,12.1,2.5,20.1,7,25.2v23.3
		c0,2,1.7,3.6,3.8,3.6h17.5c2.1,0,3.8-1.6,3.8-3.6V441h114.1v14.5c0,2,1.7,3.6,3.8,3.6h17.5c2.1,0,3.8-1.6,3.8-3.6v-23.3
		c4.4-5.2,7-13.1,7-25.2c0-14-1.9-23.9-4.3-30.5l15.8-0.9c2.4-0.1,4.3-2,4.3-4.3v-10C838.5,358.7,836.5,356.8,834,356.8z
		 M692.1,334.4c2.6-3,6.4-4.8,10.6-4.8h61.7c4.1,0,8,1.7,10.6,4.8c7.5,8.7,13.4,17.1,18,25.4l-119,0
		C678.5,351.7,684.4,343.3,692.1,334.4z M679.2,423.3c-8.7,0-15.8-2.7-15.8-9.3c0-6.6,2.6-11.9,11.3-11.9S695,407.4,695,414
		S687.9,423.3,679.2,423.3z M750.1,421.9H717c-5,0-9.1-3.9-9.1-8.6c0-1.3,1.1-2.4,2.5-2.4h46.1c1.4,0,2.5,1.1,2.5,2.4
		C759.1,418.1,755.1,421.9,750.1,421.9z M787.9,423.3c-8.7,0-15.8-2.7-15.8-9.3c0-6.6,11.6-11.9,20.3-11.9c8.7,0,11.3,5.3,11.3,11.9
		S796.6,423.3,787.9,423.3z"/>
</g>
<g id="XMLID_41_">
	<g id="XMLID_42_">
		<path id="XMLID_43_" class="st1" d="M525.3,757.7H512V585.3c0-2.3-2.1-4.2-4.6-4.2h-13.9v-12.6c0-2.3-2.1-4.2-4.6-4.2h-92.3
			c-2.5,0-4.6,1.9-4.6,4.2v12.6h-13.9c-2.5,0-4.6,1.9-4.6,4.2v172.4h-13.9c-2.5,0-4.6,1.9-4.6,4.2c0,2.3,2.1,4.2,4.6,4.2H415
			c2.5,0,4.6-1.9,4.6-4.2v-21h46.2v21c0,2.3,2.1,4.2,4.6,4.2h54.9c2.5,0,4.6-1.9,4.6-4.2C530,759.6,527.9,757.7,525.3,757.7z
			 M419.6,719.9c0,2.3-2.1,4.2-4.6,4.2h-18.5c-2.5,0-4.6-1.9-4.6-4.2v-16.8c0-2.3,2.1-4.2,4.6-4.2H415c2.5,0,4.6,1.9,4.6,4.2V719.9
			L419.6,719.9z M419.6,686.3c0,2.3-2.1,4.2-4.6,4.2h-18.5c-2.5,0-4.6-1.9-4.6-4.2v-16.8c0-2.3,2.1-4.2,4.6-4.2H415
			c2.5,0,4.6,1.9,4.6,4.2V686.3L419.6,686.3z M419.6,652.6c0,2.3-2.1,4.2-4.6,4.2h-18.5c-2.5,0-4.6-1.9-4.6-4.2v-16.8
			c0-2.3,2.1-4.2,4.6-4.2H415c2.5,0,4.6,1.9,4.6,4.2V652.6L419.6,652.6z M419.6,619c0,2.3-2.1,4.2-4.6,4.2h-18.5
			c-2.5,0-4.6-1.9-4.6-4.2v-16.8c0-2.3,2.1-4.2,4.6-4.2H415c2.5,0,4.6,1.9,4.6,4.2V619L419.6,619z M456.6,719.9
			c0,2.3-2.1,4.2-4.6,4.2h-18.5c-2.5,0-4.6-1.9-4.6-4.2v-16.8c0-2.3,2.1-4.2,4.6-4.2h18.5c2.5,0,4.6,1.9,4.6,4.2V719.9z
			 M456.6,686.3c0,2.3-2.1,4.2-4.6,4.2h-18.5c-2.5,0-4.6-1.9-4.6-4.2v-16.8c0-2.3,2.1-4.2,4.6-4.2h18.5c2.5,0,4.6,1.9,4.6,4.2V686.3
			z M456.6,652.6c0,2.3-2.1,4.2-4.6,4.2h-18.5c-2.5,0-4.6-1.9-4.6-4.2v-16.8c0-2.3,2.1-4.2,4.6-4.2h18.5c2.5,0,4.6,1.9,4.6,4.2
			V652.6z M456.6,619c0,2.3-2.1,4.2-4.6,4.2h-18.5c-2.5,0-4.6-1.9-4.6-4.2v-16.8c0-2.3,2.1-4.2,4.6-4.2h18.5c2.5,0,4.6,1.9,4.6,4.2
			V619z M493.5,719.9c0,2.3-2.1,4.2-4.6,4.2h-18.5c-2.5,0-4.6-1.9-4.6-4.2v-16.8c0-2.3,2.1-4.2,4.6-4.2h18.5c2.5,0,4.6,1.9,4.6,4.2
			V719.9z M493.5,686.3c0,2.3-2.1,4.2-4.6,4.2h-18.5c-2.5,0-4.6-1.9-4.6-4.2v-16.8c0-2.3,2.1-4.2,4.6-4.2h18.5
			c2.5,0,4.6,1.9,4.6,4.2V686.3z M493.5,652.6c0,2.3-2.1,4.2-4.6,4.2h-18.5c-2.5,0-4.6-1.9-4.6-4.2v-16.8c0-2.3,2.1-4.2,4.6-4.2
			h18.5c2.5,0,4.6,1.9,4.6,4.2V652.6z M493.5,619c0,2.3-2.1,4.2-4.6,4.2h-18.5c-2.5,0-4.6-1.9-4.6-4.2v-16.8c0-2.3,2.1-4.2,4.6-4.2
			h18.5c2.5,0,4.6,1.9,4.6,4.2V619z"/>
	</g>
</g>
<g id="XMLID_62_">
	<path id="XMLID_60_" class="st1" d="M442.7,382.6h56.8c-0.6-16.9-4.9-33.2-12.6-48.4c-14.3,3.4-29.1,5.3-44.1,5.6L442.7,382.6
		L442.7,382.6z"/>
	<path id="XMLID_59_" class="st1" d="M492,324.7c13.9-3.9,27.2-9.3,39.5-16.2l3.1-1.9c-22.6-18.3-53-30.3-86.7-32.3l-2.5,1.6
		C465.4,289.5,481.2,306.1,492,324.7z"/>
	<path id="XMLID_58_" class="st1" d="M442.7,284.2V332c13.7-0.3,27.2-2,40.2-5C473.3,310.9,459.7,296.4,442.7,284.2z"/>
	<path id="XMLID_57_" class="st1" d="M497.5,437.7c14.8,4.4,29,10.3,42.1,18l4.1,2.5c18.8-18.6,30.5-42.1,31.6-67.9h-66.4
		C508.4,406.7,504.5,422.7,497.5,437.7z"/>
	<path id="XMLID_56_" class="st1" d="M344.4,308.5c12.3,6.9,25.6,12.2,39.5,16.2c10.8-18.6,26.6-35.2,46.6-48.7l-2.5-1.6
		c-33.8,2-64.2,14-86.9,32.4L344.4,308.5z"/>
	<path id="XMLID_55_" class="st1" d="M433.2,284.2c-17,12.1-30.6,26.7-40.2,42.8c13,3,26.5,4.7,40.2,5V284.2z"/>
	<path id="XMLID_54_" class="st1" d="M367,390.3h-66.4c1.1,25.7,12.7,49.3,31.6,67.9l4-2.5c13.2-7.7,27.4-13.6,42.2-18
		C371.4,422.7,367.5,406.7,367,390.3z"/>
	<path id="XMLID_53_" class="st1" d="M380,331.8c-14.4-4.1-28.2-9.7-41-16.9l-4.4-2.5c-20.2,18.9-32.9,43.3-34,70.1H367
		C367.6,364.9,372,347.7,380,331.8z"/>
	<path id="XMLID_52_" class="st1" d="M376.5,382.6h56.8v-42.8c-15.1-0.3-29.9-2.2-44.1-5.6C381.4,349.3,377,365.7,376.5,382.6z"/>
	<path id="XMLID_51_" class="st1" d="M430,496.6c-20.9-14.3-37.2-32-47.9-51.7c-14.2,4.2-27.7,9.8-40.3,17.1l-3.3,2
		c22.6,19.4,53.6,32.2,88.2,34.5L430,496.6z"/>
	<path id="XMLID_50_" class="st1" d="M433.2,429.2v-38.9h-56.8c0.5,15.6,4.3,30.7,11,44.9C402.2,431.6,417.5,429.6,433.2,429.2z"/>
	<path id="XMLID_49_" class="st1" d="M534,461.9c-12.5-7.3-26-12.9-40.1-17.1c-10.8,19.8-27,37.5-47.9,51.7l3.2,1.9
		c34.6-2.3,65.6-15.1,88.2-34.5L534,461.9z"/>
	<path id="XMLID_48_" class="st1" d="M537.1,314.8c-12.9,7.2-26.8,12.8-41.2,17c8,15.9,12.5,33.1,13,50.8h66.4
		c-1.1-26.9-13.8-51.4-34.2-70.3L537.1,314.8z"/>
	<path id="XMLID_47_" class="st1" d="M433.2,488.6V437c-14.4,0.3-28.5,2.2-42.1,5.4C400.8,459.9,415,475.7,433.2,488.6z"/>
	<path id="XMLID_46_" class="st1" d="M499.4,390.3h-56.8v38.9c15.7,0.3,31,2.3,45.8,6C495.2,421,498.9,405.9,499.4,390.3z"/>
	<path id="XMLID_40_" class="st1" d="M484.8,442.4c-13.6-3.3-27.7-5.1-42.1-5.4v51.7C460.9,475.7,475.1,459.9,484.8,442.4z"/>
</g>
<path id="XMLID_61_" class="st1" d="M115.2,447.5H50c-27.6,0-50-21.3-50-47.6c0-18.2,12.5-37.1,29.6-45l2.6-1.2V351
	c0-0.6,0-1.1,0.1-1.7l0-0.7l-0.1-0.9c0-0.4-0.1-0.7-0.1-1.1c0-16.9,14.5-30.7,32.3-30.7c1.4,0,2.8,0.1,4.2,0.3
	c0.4,0,0.7,0.1,1.1,0.2c1.2,0.2,2.4,0.4,3.6,0.8c0.2,0,0.3,0.1,0.5,0.1c1.3,0.4,2.6,0.9,3.8,1.4c0.3,0.1,0.6,0.3,1,0.4
	c1.1,0.5,2.2,1.1,3.2,1.7c8.9,5.5,14.8,15,14.8,25.8c0,2.4,2.1,4.4,4.6,4.4s4.6-2,4.6-4.4c0-12.1-5.7-22.9-14.7-30.1
	c13.2-16.4,35-26.9,56.6-26.9c35.7,0,65.3,26.9,68.4,60.9c-4.7-0.3-11.8-0.5-18.8,0.5c-2.5,0.4-4.2,2.6-3.9,5
	c0.3,2.2,2.3,3.7,4.5,3.7c0.2,0,0.5,0,0.7-0.1c10.3-1.5,21-0.1,21.6,0c21.5,3.9,37.6,22.7,37.6,43.8c0,24.2-20.7,44-46.2,44h-59.8
	H115.2z"/>
</svg>
