<?xml version="1.0" encoding="utf-8"?>
<!-- Generator: Adobe Illustrator 19.0.0, SVG Export Plug-In . SVG Version: 6.00 Build 0)  -->
<svg version="1.1" xmlns="http://www.w3.org/2000/svg" xmlns:xlink="http://www.w3.org/1999/xlink" x="0px" y="0px"
	 viewBox="263 123.6 1121.9 595.3" style="enable-background:new 263 123.6 1121.9 595.3;" xml:space="preserve">
<style type="text/css">
	.st0{fill:#DD172A;stroke:#000000;stroke-miterlimit:10;}
	.st1{opacity:0.36;}
	.st2{fill:#F9FAF8;stroke:#F9FAF8;stroke-width:0.5;stroke-miterlimit:10;}
	.st3{fill:#FFFFFF;}
	.st4{fill:#FAFAFA;}
	.st5{fill:#FEFFFD;}
	.st6{fill:#FEFEFD;}
	.st7{fill:none;stroke:#FAFAFA;stroke-miterlimit:10;}
	.st8{fill:none;stroke:#FFFFFF;stroke-miterlimit:10;}
	.st9{fill:none;stroke:#FDFDFC;stroke-miterlimit:10;}
	.st10{fill:none;stroke:#F7F2EF;stroke-miterlimit:10;}
	.st11{fill:none;stroke:#FFFFFF;stroke-width:2;stroke-miterlimit:10;}
	.st12{fill:#F7F1F1;stroke:#FFFFFF;stroke-miterlimit:10;}
	.st13{opacity:0.31;stroke:#000000;stroke-miterlimit:10;}
</style>
<g id="Capa_1">
	<g id="BackGround">
		<rect id="XMLID_79_" x="263" y="123.6" class="st0" width="1121.9" height="595.3"/>
	</g>
	<g id="iconos" class="st1">
		<g id="Capa_5">
			<g id="XMLID_89_">
				<path id="XMLID_95_" class="st2" d="M803.8,304.1h-89c-6,0-10.9,5.5-10.9,12.2v168.5c0,6.7,4.9,12.2,10.9,12.2h89
					c6,0,10.9-5.5,10.9-12.2V316.3C814.7,309.5,809.8,304.1,803.8,304.1z M709.3,334.8h99.9v127.6h-99.9L709.3,334.8L709.3,334.8z
					 M714.8,310.2h89c3,0,5.4,2.7,5.4,6.1v14.4h-99.9v-14.4C709.3,312.9,711.8,310.2,714.8,310.2z M803.8,490.9h-89
					c-3,0-5.4-2.7-5.4-6.1v-18.3h99.9v18.3C809.2,488.1,806.8,490.9,803.8,490.9z"/>
				<path id="XMLID_92_" class="st2" d="M759.3,469.1c-4.9,0-8.9,4.5-8.9,10s4,10,8.9,10s8.9-4.5,8.9-10S764.2,469.1,759.3,469.1z
					 M759.3,485.1c-2.9,0-5.3-2.7-5.3-5.9c0-3.3,2.4-5.9,5.3-5.9s5.3,2.7,5.3,5.9S762.2,485.1,759.3,485.1z"/>
				<path id="XMLID_81_" class="st2" d="M746.9,323.5h24.7c1,0,1.8-0.9,1.8-2s-0.8-2-1.8-2h-24.7c-1,0-1.8,0.9-1.8,2
					S745.9,323.5,746.9,323.5z"/>
				<path id="XMLID_80_" class="st2" d="M740.3,323.5c0.5,0,0.9-0.2,1.3-0.6c0.3-0.4,0.5-0.9,0.5-1.4s-0.2-1.1-0.5-1.4
					c-0.3-0.4-0.8-0.6-1.3-0.6s-0.9,0.2-1.3,0.6c-0.3,0.4-0.5,0.9-0.5,1.4s0.2,1.1,0.5,1.4C739.4,323.3,739.9,323.5,740.3,323.5z"/>
			</g>
		</g>
		<g id="Capa_11">
			<path id="XMLID_110_" class="st3" d="M777.6,384.2l-16-18.2c-0.2-0.3-0.6-0.3-0.8,0l-16,18.2c-0.2,0.2-0.3,0.5-0.2,0.8
				s0.3,0.5,0.6,0.5h3.7v23.2c0,0.4,0.3,0.8,0.6,0.8h23.3c0.3,0,0.6-0.3,0.6-0.8v-23.2h3.7c0.3,0,0.5-0.2,0.6-0.5
				C777.8,384.8,777.8,384.4,777.6,384.2L777.6,384.2z M761,377c0-0.3,0.2-0.5,0.4-0.5c0.2,0,0.4,0.2,0.4,0.5c0,0.3-0.2,0.5-0.4,0.5
				C761.2,377.5,761,377.3,761,377z M772.8,384c-0.3,0-0.6,0.3-0.6,0.8V408h-4.8v-7.4l1.7-2.1c0.2,0.1,0.4,0.1,0.6,0.1
				c0.9,0,1.6-0.9,1.6-2s-0.7-2-1.6-2s-1.6,0.9-1.6,2c0,0.3,0.1,0.6,0.2,0.9l-1.8,2.3c-0.1,0.1-0.2,0.3-0.2,0.5v7.7h-1.4v-16.2
				l1.1-1.4c0.2,0.1,0.4,0.2,0.7,0.2c0.9,0,1.6-0.9,1.6-2s-0.7-2-1.6-2c-0.9,0-1.6,0.9-1.6,2c0,0.3,0,0.5,0.1,0.8l-1.3,1.7
				c-0.1,0.1-0.2,0.3-0.2,0.5v16.5h-1.4V379c0.6-0.3,1-1,1-1.9c0-1.1-0.7-2-1.6-2c-0.9,0-1.6,0.9-1.6,2c0,0.9,0.4,1.6,1,1.9v29.1
				h-1.4v-20.6c0-0.2-0.1-0.4-0.2-0.5l-1.2-1.5c0.1-0.3,0.2-0.6,0.2-0.9c0-1.1-0.7-2-1.6-2s-1.6,0.9-1.6,2s0.7,2,1.6,2
				c0.2,0,0.4,0,0.5-0.1l1.1,1.4v20.3h-1.4v-11.8c0-0.2-0.1-0.4-0.2-0.5l-1.8-2.3c0.1-0.3,0.2-0.6,0.2-0.9c0-1.1-0.7-2-1.6-2
				c-0.9,0-1.6,0.9-1.6,2s0.7,2,1.6,2c0.2,0,0.4,0,0.6-0.1l1.7,2.1v11.5h-5.4V385c0-0.4-0.3-0.8-0.6-0.8h-2.7l14.4-16.4l14.4,16.4
				L772.8,384L772.8,384z M769.2,396.6c0-0.3,0.2-0.5,0.4-0.5c0.2,0,0.4,0.2,0.4,0.5s-0.2,0.5-0.4,0.5
				C769.4,397.1,769.2,396.9,769.2,396.6z M766.1,388.5c0-0.3,0.2-0.5,0.4-0.5c0.2,0,0.4,0.2,0.4,0.5s-0.2,0.5-0.4,0.5
				C766.3,389,766.1,388.8,766.1,388.5z M756.5,384.9c-0.2,0-0.4-0.2-0.4-0.5s0.2-0.5,0.4-0.5s0.4,0.2,0.4,0.5
				S756.7,384.9,756.5,384.9z M753.2,393c-0.2,0-0.4-0.2-0.4-0.5s0.2-0.5,0.4-0.5s0.4,0.2,0.4,0.5C753.6,392.8,753.4,393,753.2,393z
				"/>
		</g>
		<g id="Capa_12">
			<g id="XMLID_117_">
				<path id="XMLID_123_" class="st3" d="M527.7,398.1H494c-0.6,0-1.1,0.5-1.1,1.2v21.9c0,0.7,0.5,1.2,1.1,1.2h33.7
					c0.6,0,1.1-0.5,1.1-1.2v-21.9C528.7,398.6,528.3,398.1,527.7,398.1L527.7,398.1z M527.8,421.2c0,0.1-0.1,0.2-0.1,0.2H494
					c-0.1,0-0.1-0.1-0.1-0.2v-21.9c0-0.1,0.1-0.2,0.1-0.2h33.7c0.1,0,0.1,0.1,0.1,0.2L527.8,421.2L527.8,421.2z"/>
				<path id="XMLID_118_" class="st3" d="M531.9,423.2h-1.1v-24.5c0-1.6-1.2-2.9-2.7-2.9h-34.7c-1.5,0-2.7,1.3-2.7,2.9v24.5h-1.1
					c-0.4,0-0.7,0.3-0.7,0.8v2.1c0,1.4,1,2.5,2.3,2.5h39.1c1.2,0,2.3-1.1,2.3-2.5V424C532.6,423.5,532.3,423.2,531.9,423.2z
					 M492.2,398.7c0-0.8,0.6-1.4,1.3-1.4h34.7c0.7,0,1.3,0.6,1.3,1.4v24.5h-37.2L492.2,398.7L492.2,398.7z M508.8,424.7h4.1v0.4
					c0,0.2-0.1,0.3-0.3,0.3h-3.5c-0.2,0-0.3-0.1-0.3-0.3V424.7L508.8,424.7z M531.2,426.1c0,0.5-0.4,1-0.9,1h-39.1
					c-0.5,0-0.9-0.4-0.9-1v-1.3h1.1h16.3v0.4c0,0.7,0.6,1.4,1.2,1.4h3.5c0.7,0,1.2-0.6,1.2-1.4v-0.4h16.3h1.1v1.3H531.2z"/>
			</g>
		</g>
		<g id="Capa_13">
			<g id="XMLID_17_">
				<path id="XMLID_33_" class="st4" d="M548,247.2h-44.8c-1.4,0-2.5,1.2-2.5,2.6v26.8c0,1.4,1.1,2.6,2.5,2.6H548
					c1.4,0,2.5-1.2,2.5-2.6v-26.8C550.5,248.4,549.4,247.2,548,247.2z M502.3,276.6v-26.8c0-0.5,0.4-0.9,0.9-0.9h35.4v28.7h-35.4
					C502.7,277.5,502.3,277.1,502.3,276.6z M548.9,276.6c0,0.5-0.4,0.9-0.9,0.9h-7.8v-28.7h7.8c0.5,0,0.9,0.4,0.9,0.9V276.6z"/>
				<path id="XMLID_12_" class="st4" d="M535.9,251.6c-0.4,0-0.8,0.4-0.8,0.8v21.4c0,0.5,0.4,0.8,0.8,0.8c0.4,0,0.8-0.4,0.8-0.8
					v-21.4C536.7,252,536.4,251.6,535.9,251.6z"/>
				<path id="XMLID_29_" class="st4" d="M532.5,251.6h-26.7c-0.4,0-0.8,0.4-0.8,0.8v21.4c0,0.5,0.4,0.8,0.8,0.8h26.7
					c0.4,0,0.8-0.4,0.8-0.8v-21.4C533.3,252,532.9,251.6,532.5,251.6z M531.7,273h-25.1v-19.7h25.1V273z"/>
				<path id="XMLID_25_" class="st4" d="M544.5,268.6c-1.9,0-3.4,1.6-3.4,3.5s1.5,3.5,3.4,3.5s3.4-1.6,3.4-3.5
					S546.4,268.6,544.5,268.6z M546.3,272.1c0,0.2,0,0.4-0.1,0.6l-2.2-2.3c0.2-0.1,0.4-0.1,0.5-0.1
					C545.5,270.3,546.3,271.1,546.3,272.1z M542.8,272.1c0-0.2,0-0.4,0.1-0.6l2.2,2.3c-0.2,0.1-0.4,0.1-0.5,0.1
					C543.6,273.9,542.8,273.1,542.8,272.1z"/>
				<path id="XMLID_21_" class="st4" d="M544.5,260.6c-1.9,0-3.4,1.6-3.4,3.5s1.5,3.5,3.4,3.5s3.4-1.6,3.4-3.5
					S546.4,260.6,544.5,260.6z M546.3,264.1c0,0.2,0,0.4-0.1,0.6l-2.2-2.3c0.2-0.1,0.4-0.1,0.5-0.1
					C545.5,262.2,546.3,263.1,546.3,264.1z M542.8,264.1c0-0.2,0-0.4,0.1-0.6l2.2,2.3c-0.2,0.1-0.4,0.1-0.5,0.1
					C543.6,265.9,542.8,265.1,542.8,264.1z"/>
				<path id="XMLID_3_" class="st4" d="M542.8,258.7h3.4c0.4,0,0.8-0.4,0.8-0.8c0-0.4-0.4-0.8-0.8-0.8h-3.4c-0.4,0-0.8,0.4-0.8,0.8
					C542,258.3,542.4,258.7,542.8,258.7z"/>
				<path id="XMLID_2_" class="st4" d="M542.8,256h3.4c0.4,0,0.8-0.4,0.8-0.8s-0.4-0.8-0.8-0.8h-3.4c-0.4,0-0.8,0.4-0.8,0.8
					S542.4,256,542.8,256z"/>
				<path id="XMLID_16_" class="st4" d="M542.8,253.3h3.4c0.4,0,0.8-0.4,0.8-0.8c0-0.5-0.4-0.8-0.8-0.8h-3.4c-0.4,0-0.8,0.4-0.8,0.8
					S542.4,253.3,542.8,253.3z"/>
			</g>
		</g>
		<g id="Capa_14">
			<g id="XMLID_30_">
				<path id="XMLID_35_" class="st3" d="M540,558.5l-1.5-8.5c-0.1-0.6-0.6-1-1.2-1h-12.7c-0.6,0-1.1,0.4-1.2,1l-1.5,8.6
					c-2.9,0.5-5.1,3.1-5.1,6.1v19.7c0,3,2.2,5.6,5.1,6.1l1.5,8.6c0.1,0.6,0.6,1,1.2,1h12.7c0.6,0,1.1-0.4,1.2-1l1.5-8.5
					c2.9-0.5,5.2-3.1,5.2-6.1v-19.9C545.2,561.5,542.9,559,540,558.5z M519.2,583.6v-18.2h23.5v18.2H519.2z M525.6,551.4h10.6l1.2,7
					h-13.1L525.6,551.4z M522.9,560.9h16l0,0c1.4,0,2.7,0.8,3.3,2h-22.6C520.3,561.7,521.5,560.9,522.9,560.9z M536.2,597.6h-10.6
					l-1.2-7h13.1L536.2,597.6z M538.9,588.1L538.9,588.1h-16c-1.4,0-2.7-0.8-3.3-2h22.6C541.6,587.3,540.4,588.1,538.9,588.1z"/>
				<path id="XMLID_19_" class="st3" d="M537.7,569.2c-0.5-0.5-1.3-0.5-1.8,0l-5,5l-3.1-3.1c-0.5-0.5-1.3-0.5-1.8,0s-0.5,1.3,0,1.8
					l3.9,3.9c0.2,0.2,0.5,0.4,0.9,0.4c0.4,0,0.6-0.1,0.9-0.4l5.9-5.9C538.2,570.5,538.2,569.7,537.7,569.2z"/>
				<path id="XMLID_18_" class="st3" d="M547.3,565.4c-0.5,0-0.8,0.4-0.8,0.8v4.5c0,0.5,0.4,0.8,0.8,0.8c0.5,0,0.8-0.4,0.8-0.8v-4.5
					C548.1,565.7,547.8,565.4,547.3,565.4z"/>
				<path id="XMLID_28_" class="st3" d="M547.3,573.8c-0.5,0-0.8,0.4-0.8,0.8v8.2c0,0.5,0.4,0.8,0.8,0.8c0.5,0,0.8-0.4,0.8-0.8v-8.2
					C548.1,574.2,547.8,573.8,547.3,573.8z"/>
			</g>
		</g>
		<g id="Capa_15">
			<path id="XMLID_31_" class="st3" d="M1211.1,293.2c3.6,0,6.8,1.7,9.2,4.6l-3.1,3.7c-1.6-1.9-3.7-3-6.1-3c-2.4,0-4.6,1.2-6.1,3.1
				l-3.1-3.7C1204.2,295,1207.5,293.2,1211.1,293.2z M1195.7,290.4c4.1-4.9,9.5-7.6,15.3-7.6s11.2,2.7,15.3,7.6l-3.1,3.7
				c-3.3-3.9-7.6-6.1-12.3-6.1s-9,2.2-12.3,6.1L1195.7,290.4z M1222.9,275.3c3.6,1.8,6.9,4.5,9.6,7.8l0,0l-3.1,3.7
				c-4.9-5.9-11.4-9.1-18.4-9.1c-6.9,0-13.5,3.2-18.4,9.1l-3.1-3.7c2.8-3.3,6-6,9.6-7.8c3.7-1.9,7.7-2.9,11.8-2.9
				C1215.2,272.4,1219.1,273.4,1222.9,275.3L1222.9,275.3z M1208.9,306.2c0-1.4,1-2.6,2.2-2.6c1.2,0,2.2,1.2,2.2,2.6
				c0,1.4-1,2.6-2.2,2.6C1209.9,308.8,1208.9,307.6,1208.9,306.2z"/>
		</g>
		<g id="Capa_16">
			<path id="XMLID_55_" class="st3" d="M1002.4,350.3c-11.8,0-21.3,9.6-21.3,21.4c0,11.8,9.5,21.4,21.3,21.4s21.3-9.6,21.3-21.4
				C1023.7,359.9,1014.1,350.3,1002.4,350.3z M1014.4,378.8c0.4-1.8,0.6-3.7,0.7-5.7h5.7c-0.1,2-0.6,3.9-1.4,5.7H1014.4z
				 M990.3,364.6c-0.4,1.8-0.6,3.7-0.7,5.7H984c0.1-2,0.6-3.9,1.4-5.7H990.3z M1011.5,364.6c0.4,1.8,0.7,3.7,0.8,5.7h-8.5v-5.7
				H1011.5z M1003.8,361.7v-8.3c0.6,0.2,1.3,0.5,1.9,1c1.2,0.8,2.3,2.1,3.3,3.7c0.7,1.1,1.2,2.3,1.7,3.7L1003.8,361.7L1003.8,361.7z
				 M995.8,358.1c1-1.6,2.1-2.9,3.3-3.7c0.6-0.4,1.3-0.8,1.9-1v8.3h-6.9C994.5,360.4,995.1,359.2,995.8,358.1L995.8,358.1z
				 M1001,364.6v5.7h-8.5c0.1-2,0.3-3.9,0.8-5.7H1001z M985.3,378.8c-0.8-1.8-1.2-3.7-1.4-5.7h5.7c0.1,2,0.3,3.9,0.7,5.7H985.3z
				 M992.5,373.1h8.5v5.7h-7.7C992.8,377,992.6,375.1,992.5,373.1z M1001,381.7v8.3c-0.6-0.2-1.3-0.5-1.9-1
				c-1.2-0.8-2.3-2.1-3.3-3.7c-0.7-1.1-1.2-2.3-1.7-3.7L1001,381.7L1001,381.7z M1009,385.4c-1,1.6-2.1,2.9-3.3,3.7
				c-0.6,0.4-1.3,0.8-1.9,1v-8.3h6.9C1010.2,383,1009.6,384.3,1009,385.4L1009,385.4z M1003.8,378.8v-5.7h8.5
				c-0.1,2-0.3,3.9-0.8,5.7H1003.8z M1015.1,370.3c-0.1-2-0.3-3.9-0.7-5.7h5c0.8,1.8,1.2,3.7,1.4,5.7H1015.1z M1017.9,361.7h-4.3
				c-0.8-2.6-2-4.9-3.3-6.7c1.9,0.9,3.6,2.1,5.1,3.6C1016.4,359.6,1017.2,360.6,1017.9,361.7z M989.3,358.6c1.5-1.5,3.2-2.7,5.1-3.6
				c-1.4,1.8-2.5,4.1-3.3,6.7h-4.3C987.5,360.6,988.4,359.6,989.3,358.6z M986.8,381.7h4.3c0.8,2.6,2,4.9,3.3,6.7
				c-1.9-0.9-3.6-2.1-5.1-3.6C988.4,383.8,987.5,382.8,986.8,381.7z M1015.4,384.8c-1.5,1.5-3.2,2.7-5.1,3.6
				c1.4-1.8,2.5-4.1,3.3-6.7h4.3C1017.2,382.8,1016.4,383.8,1015.4,384.8z"/>
		</g>
		<g id="Capa_17">
			<path id="XMLID_60_" class="st3" d="M977.7,531.9h19.5v5h-19.5V531.9z"/>
			<path id="XMLID_56_" class="st3" d="M1004.6,539.3h-34.2c-1.3,0-2.4,1.1-2.4,2.5v12.4c0,1.4,1.1,2.5,2.4,2.5h7.3v9.9h19.5v-9.9
				h7.3c1.3,0,2.4-1.1,2.4-2.5v-12.4C1007.1,540.4,1006,539.3,1004.6,539.3z M972.9,546.8c-1.3,0-2.4-1.1-2.4-2.5
				c0-1.4,1.1-2.5,2.4-2.5s2.4,1.1,2.4,2.5C975.3,545.7,974.2,546.8,972.9,546.8z M994.8,564.1h-14.7v-12.4h14.7V564.1z"/>
		</g>
		<g id="Capa_18">
			<path id="XMLID_119_" class="st5" d="M785.6,252l0.9-1.3l-1-1l-1.3,0.9c-0.2-0.1-0.5-0.2-0.7-0.3l-0.3-1.6h-1.4l-0.3,1.6
				c-0.3,0.1-0.5,0.2-0.7,0.3l-1.3-0.9l-1,1l0.9,1.3c-0.1,0.2-0.2,0.5-0.3,0.8l-1.5,0.3v1.5l1.5,0.3c0.1,0.3,0.2,0.5,0.3,0.8
				l-0.9,1.3l1,1l1.3-0.9c0.2,0.1,0.5,0.2,0.7,0.3l0.3,1.6h1.4l0.3-1.6c0.3-0.1,0.5-0.2,0.7-0.3l1.3,0.9l1-1l-0.9-1.3
				c0.1-0.2,0.2-0.5,0.3-0.8l1.5-0.3v-1.5l-1.5-0.3C785.8,252.5,785.7,252.2,785.6,252L785.6,252z M782.6,255.2
				c-0.8,0-1.4-0.7-1.4-1.5s0.6-1.5,1.4-1.5s1.4,0.7,1.4,1.5S783.3,255.2,782.6,255.2z M799.9,244.3v-1.5l-1.5-0.3
				c0-0.2-0.1-0.4-0.1-0.5l1.3-0.8l-0.5-1.3l-1.5,0.3c-0.1-0.2-0.2-0.3-0.3-0.5l0.8-1.3l-1-1l-1.2,0.9c-0.1-0.1-0.3-0.2-0.4-0.3
				l0.3-1.5l-1.3-0.6l-0.8,1.3c-0.2,0-0.3-0.1-0.5-0.1l-0.3-1.5h-1.4l-0.3,1.5c-0.2,0-0.3,0.1-0.5,0.1l-0.8-1.3l-1.3,0.6l0.3,1.5
				c-0.2,0.1-0.3,0.2-0.4,0.3l-1.2-0.9l-1,1l0.8,1.3c-0.1,0.1-0.2,0.3-0.3,0.5l-1.5-0.3l-0.5,1.3l1.3,0.8c0,0.2-0.1,0.4-0.1,0.5
				l-1.5,0.3v1.5l1.5,0.3c0,0.2,0.1,0.4,0.1,0.5l-1.3,0.8l0.5,1.3l1.5-0.3c0.1,0.2,0.2,0.3,0.3,0.5l-0.8,1.3l1,1l1.2-0.9
				c0.1,0.1,0.3,0.2,0.4,0.3l-0.3,1.5l1.3,0.6l0.8-1.3c0.2,0,0.3,0.1,0.5,0.1l0.3,1.5h1.4l0.3-1.5c0.2,0,0.3-0.1,0.5-0.1l0.8,1.3
				l1.3-0.6l-0.3-1.5c0.2-0.1,0.3-0.2,0.4-0.3l1.2,0.9l1-1l-0.8-1.3c0.1-0.1,0.2-0.3,0.3-0.5l1.5,0.3l0.5-1.3l-1.3-0.8
				c0-0.2,0.1-0.4,0.1-0.5L799.9,244.3z M792.3,246.7c-1.7,0-3-1.4-3-3.2c0-1.8,1.4-3.2,3-3.2s3,1.4,3,3.2
				C795.3,245.3,794,246.7,792.3,246.7z"/>
		</g>
		<g id="Capa_19">
			<g id="XMLID_139_">
				<path id="XMLID_162_" class="st3" d="M1170.1,602.5c0.8,0,1.4-0.7,1.4-1.5c0-0.7-0.4-1.2-0.9-1.4v-0.1c0-0.3-0.2-0.5-0.4-0.5
					s-0.4,0.2-0.4,0.5v0.1c-0.5,0.2-0.9,0.8-0.9,1.4C1168.7,601.8,1169.3,602.5,1170.1,602.5z M1170.1,600.5c0.3,0,0.5,0.2,0.5,0.5
					s-0.2,0.5-0.5,0.5s-0.5-0.2-0.5-0.5S1169.8,600.5,1170.1,600.5z"/>
				<path id="XMLID_159_" class="st3" d="M1165.4,602.5c0.8,0,1.4-0.7,1.4-1.5c0-0.7-0.4-1.2-0.9-1.4v-0.1c0-0.3-0.2-0.5-0.4-0.5
					s-0.4,0.2-0.4,0.5v0.1c-0.5,0.2-0.9,0.8-0.9,1.4C1164,601.8,1164.6,602.5,1165.4,602.5z M1165.4,600.5c0.3,0,0.5,0.2,0.5,0.5
					s-0.2,0.5-0.5,0.5s-0.5-0.2-0.5-0.5S1165.1,600.5,1165.4,600.5z"/>
				<path id="XMLID_156_" class="st3" d="M1179.5,602.5c0.8,0,1.4-0.7,1.4-1.5c0-0.7-0.4-1.2-0.9-1.4v-0.1c0-0.3-0.2-0.5-0.4-0.5
					s-0.4,0.2-0.4,0.5v0.1c-0.5,0.2-0.9,0.8-0.9,1.4C1178.1,601.8,1178.7,602.5,1179.5,602.5z M1179.5,600.5c0.3,0,0.5,0.2,0.5,0.5
					s-0.2,0.5-0.5,0.5s-0.5-0.2-0.5-0.5S1179.2,600.5,1179.5,600.5z"/>
				<path id="XMLID_153_" class="st3" d="M1174.8,602.5c0.8,0,1.4-0.7,1.4-1.5c0-0.7-0.4-1.2-0.9-1.4v-0.1c0-0.3-0.2-0.5-0.4-0.5
					c-0.2,0-0.4,0.2-0.4,0.5v0.1c-0.5,0.2-0.9,0.8-0.9,1.4C1173.4,601.8,1174,602.5,1174.8,602.5z M1174.8,600.5
					c0.3,0,0.5,0.2,0.5,0.5s-0.2,0.5-0.5,0.5c-0.3,0-0.5-0.2-0.5-0.5S1174.5,600.5,1174.8,600.5z"/>
				<path id="XMLID_129_" class="st3" d="M1179.5,607.6h-14.1c-0.2,0-0.4,0.2-0.4,0.5s0.2,0.5,0.4,0.5h14.1c0.2,0,0.4-0.2,0.4-0.5
					C1179.9,607.9,1179.8,607.6,1179.5,607.6z"/>
				<path id="XMLID_149_" class="st3" d="M1180.9,605.6H1164c-0.5,0-0.9,0.4-0.9,1v14.2c0,0.5,0.4,1,0.9,1h16.9c0.5,0,0.9-0.4,0.9-1
					v-14.2C1181.8,606.1,1181.4,605.6,1180.9,605.6z M1180.9,620.8C1180.9,620.8,1180.9,620.9,1180.9,620.8H1164l0,0v-14.2l0,0h16.9
					l0,0V620.8z"/>
				<path id="XMLID_146_" class="st3" d="M1179.5,609.7h-14.1c-0.2,0-0.4,0.2-0.4,0.5v9.1c0,0.3,0.2,0.5,0.4,0.5h14.1
					c0.2,0,0.4-0.2,0.4-0.5v-9.1C1179.9,609.9,1179.8,609.7,1179.5,609.7z M1179.1,618.8h-13.2v-8.2h13.2V618.8z"/>
				<path id="XMLID_140_" class="st3" d="M1182.8,597.5h-1V597c0-0.5-0.4-1-0.9-1h-6.6c-0.5,0-0.9,0.4-0.9,1v0.5h-1.9V597
					c0-0.5-0.4-1-0.9-1h-6.6c-0.5,0-0.9,0.4-0.9,1v0.5h-1c-0.5,0-0.9,0.4-0.9,1v25.9c0,0.5,0.4,1,0.9,1h0.9c0.5,0,0.9-0.4,0.9-1
					v-0.5h17v0.5c0,0.5,0.4,1,0.9,1h0.9c0.5,0,0.9-0.4,0.9-1v-25.9C1183.7,597.9,1183.3,597.5,1182.8,597.5z M1174.3,596.9
					L1174.3,596.9h6.6l0,0v0.5h-6.6V596.9z M1164,596.9L1164,596.9h6.6l0,0v0.5h-6.6V596.9z M1162.1,598.4h20.7l0,0v5.1h-20.7V598.4
					C1162.1,598.5,1162.1,598.4,1162.1,598.4z M1182.8,624.4h-0.9l0,0v-1c0-0.3-0.2-0.5-0.4-0.5h-17.9c-0.2,0-0.4,0.2-0.4,0.5v1l0,0
					h-0.9l0,0v-19.8h20.7L1182.8,624.4L1182.8,624.4z"/>
			</g>
		</g>
		<g id="Capa_20">
			<path id="XMLID_154_" class="st3" d="M892,172.4c-1.9-1.9-4.3-2.9-7-2.9c-5.3,0.1-9.6,4.5-9.6,10c0,1.6,0.4,3.1,1.1,4.5
				c1.2,2.3,1.8,5,1.8,7.8v3.2c0,2.8,2.1,5.1,4.8,5.4c0.2,1,1.1,1.7,2.1,1.7s1.9-0.7,2.1-1.7c2.7-0.3,4.8-2.6,4.8-5.4v-3.2
				c0-2.7,0.6-5.4,1.8-7.9c0.7-1.4,1-2.9,1-4.4C894.9,176.8,893.9,174.3,892,172.4L892,172.4z M891,193.6v1.1h-11.5v-1.1H891z
				 M884.7,177.2c0-0.2,0.2-0.4,0.4-0.4s0.4,0.2,0.4,0.4c0,0.2-0.2,0.4-0.4,0.4S884.7,177.4,884.7,177.2z M883.6,199.2
				c-1.1,0-2.1-0.4-2.8-1.1h8.8c-0.7,0.7-1.7,1.1-2.8,1.1H883.6L883.6,199.2z M879.9,197c-0.2-0.3-0.3-0.7-0.4-1.1h11.3
				c-0.1,0.4-0.2,0.8-0.4,1.1H879.9L879.9,197z M885.2,200.9c-0.4,0-0.7-0.2-0.9-0.5h1.8C885.9,200.7,885.6,200.9,885.2,200.9z
				 M892.9,183.4c-1.3,2.6-2,5.5-2,8.4v0.7h-3.2v-10.1l1.4-1.4c0.2,0.1,0.4,0.1,0.6,0.1c0.8,0,1.5-0.7,1.5-1.5s-0.7-1.5-1.5-1.5
				s-1.5,0.7-1.5,1.5c0,0.2,0,0.4,0.1,0.6l-1.6,1.6c-0.1,0.1-0.2,0.2-0.2,0.4v10.3h-1.1v-13.9c0.5-0.2,0.9-0.8,0.9-1.4
				c0-0.8-0.7-1.5-1.5-1.5s-1.5,0.7-1.5,1.5c0,0.6,0.4,1.2,0.9,1.4v13.9h-1.1v-6c0-0.1-0.1-0.3-0.2-0.4l-1.6-1.6
				c0.1-0.2,0.1-0.4,0.1-0.6c0-0.8-0.7-1.5-1.5-1.5s-1.5,0.7-1.5,1.5s0.7,1.5,1.5,1.5c0.2,0,0.4,0,0.6-0.1l1.4,1.4v5.8H879v-0.7
				c0-2.9-0.7-5.8-1.9-8.3c-0.6-1.2-0.9-2.6-0.9-4c0-4.8,3.8-8.8,8.5-8.8c2.3,0,4.5,0.9,6.2,2.5c1.7,1.7,2.6,3.9,2.6,6.3
				C893.8,180.9,893.5,182.2,892.9,183.4L892.9,183.4z M889.4,179.6c0-0.2,0.2-0.4,0.4-0.4s0.4,0.2,0.4,0.4s-0.2,0.4-0.4,0.4
				C889.6,180,889.4,179.8,889.4,179.6z M880.3,184.3c-0.2,0-0.4-0.2-0.4-0.4s0.2-0.4,0.4-0.4s0.4,0.2,0.4,0.4
				S880.5,184.3,880.3,184.3z"/>
		</g>
		<g id="Capa_21">
			<path id="XMLID_269_" class="st6" d="M401.7,328.4c0,2.2,1.8,4,3.9,4c2.2,0,3.9-1.8,3.9-4c0-2.2-1.8-4-3.9-4
				C403.5,324.4,401.7,326.2,401.7,328.4z M414.1,321.7h-4.2c-0.3-1.2-0.6-2.5-1.8-2.5h-4.8c-1.2,0-1.5,1.2-1.8,2.5h-4.2
				c-0.7,0-1.2,0.6-1.2,1.2V334c0,0.7,0.5,1.2,1.2,1.2h16.9c0.7,0,1.2-0.6,1.2-1.2v-11.1C415.3,322.2,414.7,321.7,414.1,321.7z
				 M405.6,333.9c-3,0-5.4-2.4-5.4-5.5s2.4-5.5,5.4-5.5s5.4,2.4,5.4,5.5S408.6,333.9,405.6,333.9z M414.1,325.4h-2.4v-1.2h2.4V325.4
				z"/>
		</g>
		<g id="Capa_22">
			<g id="XMLID_177_">
				<g id="XMLID_178_">
					<g id="XMLID_179_">
						<path id="XMLID_193_" class="st6" d="M375.8,205.9c0.7,0,1.4-0.6,1.4-1.4v-1.4h1.4c0.7,0,1.4-0.6,1.4-1.4s-0.6-1.4-1.4-1.4
							h-1.4v-1.4c0-0.8-0.6-1.4-1.4-1.4c-0.8,0-1.4,0.6-1.4,1.4v1.4H373c-0.7,0-1.4,0.6-1.4,1.4s0.6,1.4,1.4,1.4h1.4v1.4
							C374.4,205.3,375,205.9,375.8,205.9z M373.1,202.2c-0.2,0-0.5-0.2-0.5-0.5s0.2-0.5,0.5-0.5h1.8c0.2,0,0.5-0.2,0.5-0.5v-1.8
							c0-0.3,0.2-0.5,0.5-0.5c0.2,0,0.5,0.2,0.5,0.5v1.8c0,0.3,0.2,0.5,0.5,0.5h1.8c0.2,0,0.5,0.2,0.5,0.5s-0.2,0.5-0.5,0.5h-1.8
							c-0.2,0-0.5,0.2-0.5,0.5v1.8c0,0.3-0.2,0.5-0.5,0.5c-0.2,0-0.5-0.2-0.5-0.5v-1.8c0-0.3-0.2-0.5-0.5-0.5H373.1z"/>
						<path id="XMLID_173_" class="st6" d="M389.3,194.9h-3.2v-4.1c0-1.3-1-2.3-2.3-2.3c-1.2,0-2.3,1-2.3,2.3c0,0.8-0.6,1.4-1.4,1.4
							c-0.8,0-1.4-0.6-1.4-1.4v-5.5c0-0.3-0.2-0.5-0.5-0.5c-0.3,0-0.5,0.2-0.5,0.5v5.5c0,1.3,1,2.3,2.3,2.3c1.2,0,2.3-1,2.3-2.3
							c0-0.8,0.6-1.4,1.4-1.4c0.8,0,1.4,0.6,1.4,1.4v4.6c0,0.3,0.2,0.5,0.5,0.5h3.6c3.2,0,5.9,2.7,5.9,6v7.4c0,1.5-1.3,2.3-2.3,2.3
							c-1.3,0-2.1-0.9-3.1-2c-1.4-1.6-3.2-3.6-7.3-3.6s-5.9,2-7.3,3.6c-1,1.1-1.8,2-3.1,2c-0.9,0-2.3-0.9-2.3-2.3v-7.4
							c0-3.2,2.7-6,5.9-6h8.1c0.2,0,0.5-0.2,0.5-0.5s-0.2-0.5-0.5-0.5h-8.1c-3.7,0-6.8,3.2-6.8,6.9v7.4c0,1.9,1.7,3.2,3.2,3.2
							c1.7,0,2.7-1.1,3.7-2.3c1.4-1.5,2.9-3.3,6.6-3.3s5.3,1.7,6.6,3.3c1,1.2,2,2.3,3.7,2.3c1.5,0,3.2-1.3,3.2-3.2v-7.4
							C396,198,392.9,194.9,389.3,194.9z"/>
						<path id="XMLID_189_" class="st6" d="M392,203.1c0.7,0,1.4-0.6,1.4-1.4s-0.6-1.4-1.4-1.4s-1.4,0.6-1.4,1.4
							S391.2,203.1,392,203.1z M392,201.3c0.2,0,0.5,0.2,0.5,0.5s-0.2,0.5-0.5,0.5c-0.2,0-0.5-0.2-0.5-0.5
							C391.5,201.5,391.7,201.3,392,201.3z"/>
						<path id="XMLID_186_" class="st6" d="M389.3,197.6c-0.7,0-1.4,0.6-1.4,1.4s0.6,1.4,1.4,1.4c0.8,0,1.4-0.6,1.4-1.4
							S390,197.6,389.3,197.6z M389.3,199.5c-0.2,0-0.5-0.2-0.5-0.5s0.2-0.5,0.5-0.5c0.2,0,0.5,0.2,0.5,0.5
							C389.7,199.3,389.5,199.5,389.3,199.5z"/>
						<path id="XMLID_183_" class="st6" d="M386.6,200.4c-0.7,0-1.4,0.6-1.4,1.4s0.6,1.4,1.4,1.4c0.8,0,1.4-0.6,1.4-1.4
							S387.3,200.4,386.6,200.4z M386.6,202.2c-0.2,0-0.5-0.2-0.5-0.5s0.2-0.5,0.5-0.5c0.2,0,0.5,0.2,0.5,0.5
							C387,202,386.8,202.2,386.6,202.2z"/>
						<path id="XMLID_180_" class="st6" d="M389.3,205.9c0.7,0,1.4-0.6,1.4-1.4s-0.6-1.4-1.4-1.4c-0.8,0-1.4,0.6-1.4,1.4
							S388.5,205.9,389.3,205.9z M389.3,204.1c0.2,0,0.5,0.2,0.5,0.5s-0.2,0.5-0.5,0.5c-0.2,0-0.5-0.2-0.5-0.5
							S389,204.1,389.3,204.1z"/>
					</g>
				</g>
			</g>
		</g>
		<g id="Capa_23">
			<g id="XMLID_184_">
				<path id="XMLID_185_" class="st5" d="M1160.6,175.5L1160.6,175.5L1160.6,175.5h-23.8h-0.1l0,0c-0.8,0.1-1.4,0.6-1.4,1.4v0.1
					v15.1c0,0.3,0.1,0.5,0.2,0.8c0.3,0.5,0.7,0.8,1.4,0.8h8.6v2.1h-1.6c-0.4,0-0.7,0.3-0.7,0.7s0.3,0.7,0.7,0.7h9.7
					c0.4,0,0.7-0.3,0.7-0.7c0-0.4-0.3-0.7-0.7-0.7h-1.6v-2.2h8.6c0.6,0,1.1-0.3,1.4-0.8c0.1-0.2,0.2-0.5,0.2-0.8v-15v-0.1
					C1161.9,176.1,1161.3,175.5,1160.6,175.5z M1160.6,177v15.1c0,0.1,0,0.1-0.1,0.1h-23.7c-0.1,0-0.1,0-0.1-0.1V177v-0.1h23.9
					L1160.6,177L1160.6,177z"/>
			</g>
		</g>
		<g id="Capa_24">
			<path id="XMLID_187_" class="st3" d="M1342.4,328.3h1.2V344c0,1.9-1.8,3.4-4.1,3.4c-2.3,0-4.1-1.5-4.1-3.4s1.8-3.4,4.1-3.4
				c1.1,0,2.2,0.4,2.9,1v-7.8l-9.3,2.4v10.5c0,1.9-1.8,3.4-4.1,3.4c-2.3,0-4.1-1.5-4.1-3.4s1.8-3.4,4.1-3.4c1.1,0,2.2,0.4,2.9,1V331
				L1342.4,328.3z"/>
		</g>
		<g id="Capa_25">
			<path id="XMLID_182_" class="st3" d="M1107.1,480.7l12.1,7.5l-12.1,7.5V480.7z"/>
		</g>
		<g id="Capa_26">
			<path id="XMLID_192_" class="st3" d="M1037,270.9l1.6-6.9c0.2-0.7,0.1-1.4-0.1-1.8c1.9,0.5,4,0.3,5.9-0.7
				c4.2-2.1,5.8-7.3,3.7-11.5c-2.2-4.2-7.3-5.9-11.5-3.8c-4.2,2.1-5.8,7.3-3.7,11.5c1,1.9,2.5,3.3,4.4,4c-0.4,0.2-0.9,0.7-1.1,1.4
				l-2.7,6.6c-0.4,1.1,0.1,2.3,1.2,2.6C1035.6,272.7,1036.7,272,1037,270.9z M1035.3,256.4c-1.4-2.8-0.3-6.3,2.4-7.7
				c2.8-1.4,6.2-0.3,7.7,2.5s0.3,6.3-2.4,7.7C1040.2,260.4,1036.8,259.3,1035.3,256.4z"/>
		</g>
		<g id="Capa_28">
			<g id="XMLID_230_">
				<path id="XMLID_262_" class="st3" d="M644.7,160.6h-8.8c-0.1-0.5-0.4-1-0.8-1.4l3.1-2.6c0.2,0.1,0.5,0.2,0.8,0.2
					c0.8,0,1.5-0.6,1.5-1.3c0-0.7-0.7-1.3-1.5-1.3c-0.8,0-1.5,0.6-1.5,1.3c0,0.2,0.1,0.5,0.2,0.6l-3.1,2.6c-1.3-0.9-3.2-0.9-4.6,0
					l-3.1-2.6c0.1-0.2,0.2-0.4,0.2-0.6c0-0.7-0.7-1.3-1.5-1.3s-1.5,0.6-1.5,1.3c0,0.7,0.7,1.3,1.5,1.3c0.3,0,0.5-0.1,0.8-0.2
					l3.1,2.6c-0.4,0.4-0.7,0.9-0.8,1.4h-9.1c-2.5,0-4.5,1.7-4.5,3.8v14c0,2.1,2,3.8,4.5,3.8h1.4v0.4c0,0.3,0.3,0.5,0.6,0.5
					s0.6-0.2,0.6-0.5v-0.4h20v0.4c0,0.3,0.3,0.5,0.6,0.5c0.3,0,0.6-0.2,0.6-0.5v-0.4h1.4c2.5,0,4.5-1.7,4.5-3.8v-14
					C649.1,162.3,647.1,160.6,644.7,160.6L644.7,160.6z M638.9,154.8c0.4,0,0.7,0.3,0.7,0.6s-0.3,0.6-0.7,0.6s-0.7-0.3-0.7-0.6
					C638.2,155.1,638.5,154.8,638.9,154.8z M625.5,156.1c-0.4,0-0.7-0.3-0.7-0.6c0-0.3,0.3-0.6,0.7-0.6s0.7,0.3,0.7,0.6
					C626.3,155.8,625.9,156.1,625.5,156.1z M630.5,159.6c1-0.8,2.5-0.8,3.5,0c0.3,0.3,0.6,0.6,0.7,1h-4.8
					C629.9,160.2,630.2,159.9,630.5,159.6L630.5,159.6z M648,178.4c0,1.5-1.5,2.8-3.3,2.8h-25.1c-1.8,0-3.3-1.3-3.3-2.8v-14
					c0-1.5,1.5-2.8,3.3-2.8h25.1c1.8,0,3.3,1.3,3.3,2.8V178.4z"/>
				<path id="XMLID_259_" class="st3" d="M644.6,162.2h-25.1c-1.5,0-2.6,1-2.6,2.2v14c0,1.2,1.2,2.2,2.6,2.2h25.1
					c1.5,0,2.6-1,2.6-2.2v-14C647.3,163.2,646.1,162.2,644.6,162.2L644.6,162.2z M646.5,178.4c0,0.9-0.8,1.6-1.9,1.6h-25.1
					c-1,0-1.9-0.7-1.9-1.6v-14c0-0.9,0.8-1.6,1.9-1.6h25.1c1,0,1.9,0.7,1.9,1.6V178.4z"/>
				<path id="XMLID_256_" class="st3" d="M637.8,164c-5.7-0.7-11.5-0.7-17.2,0c-0.8,0.1-1.4,0.6-1.5,1.2c-0.9,4.1-0.9,8.3,0,12.4
					c0.1,0.6,0.8,1.1,1.5,1.2c2.9,0.4,5.7,0.5,8.6,0.5c2.9,0,5.8-0.2,8.6-0.5c0.8-0.1,1.4-0.6,1.5-1.2c0.9-4.1,0.9-8.3,0-12.4
					C639.2,164.6,638.6,164.1,637.8,164L637.8,164z M638.6,177.5c-0.1,0.4-0.4,0.7-0.9,0.7c-5.6,0.7-11.4,0.7-17,0
					c-0.4-0.1-0.8-0.3-0.9-0.7c-0.9-4-0.9-8.1,0-12.2c0.1-0.4,0.4-0.7,0.9-0.7c2.8-0.4,5.7-0.5,8.5-0.5s5.7,0.2,8.5,0.5
					c0.4,0.1,0.8,0.3,0.9,0.7C639.5,169.4,639.5,173.5,638.6,177.5z"/>
				<path id="XMLID_219_" class="st3" d="M637.8,167.7c-0.2,0-0.4,0.2-0.3,0.4c0.2,1.8,0.3,3.7,0.1,5.6c0,0.2,0.1,0.3,0.4,0.3l0,0
					c0.2,0,0.4-0.1,0.4-0.3c0.2-1.9,0.1-3.8-0.1-5.7C638.2,167.8,638,167.6,637.8,167.7L637.8,167.7z"/>
				<path id="XMLID_218_" class="st3" d="M637.8,167.2c0.2,0,0.4-0.2,0.3-0.4c-0.1-0.5-0.2-0.9-0.3-1.4c0-0.2-0.2-0.3-0.4-0.3
					c-0.2,0-0.3,0.2-0.3,0.4c0.1,0.4,0.2,0.9,0.3,1.4C637.4,167.1,637.5,167.2,637.8,167.2C637.7,167.2,637.8,167.2,637.8,167.2
					L637.8,167.2z"/>
				<path id="XMLID_217_" class="st3" d="M645.2,176.2H641c-0.2,0-0.4,0.1-0.4,0.3c0,0.2,0.2,0.3,0.4,0.3h4.2c0.2,0,0.4-0.1,0.4-0.3
					C645.6,176.3,645.4,176.2,645.2,176.2z"/>
				<path id="XMLID_216_" class="st3" d="M645.2,177.4H641c-0.2,0-0.4,0.1-0.4,0.3c0,0.2,0.2,0.3,0.4,0.3h4.2c0.2,0,0.4-0.1,0.4-0.3
					C645.6,177.5,645.4,177.4,645.2,177.4z"/>
				<path id="XMLID_215_" class="st3" d="M645.2,178.6H641c-0.2,0-0.4,0.1-0.4,0.3s0.2,0.3,0.4,0.3h4.2c0.2,0,0.4-0.1,0.4-0.3
					S645.4,178.6,645.2,178.6z"/>
				<path id="XMLID_247_" class="st3" d="M641.7,172.4c-0.8,0.6-0.8,1.7,0,2.3c0.4,0.3,0.9,0.5,1.4,0.5s1-0.2,1.4-0.5
					c0.4-0.3,0.6-0.7,0.6-1.2c0-0.4-0.2-0.9-0.6-1.2C643.7,171.8,642.5,171.8,641.7,172.4z M642.3,172.9c0.2-0.2,0.5-0.3,0.9-0.3
					c0.2,0,0.4,0,0.5,0.1l-1.6,1.4C641.8,173.7,641.9,173.2,642.3,172.9L642.3,172.9z M644,174.3c-0.4,0.3-0.9,0.4-1.4,0.2l1.6-1.4
					c0.1,0.1,0.1,0.3,0.1,0.5C644.3,173.9,644.2,174.1,644,174.3L644,174.3z"/>
				<path id="XMLID_243_" class="st3" d="M641.7,170.7c0.4,0.3,0.9,0.5,1.4,0.5s1-0.2,1.4-0.5c0.4-0.3,0.6-0.7,0.6-1.2
					s-0.2-0.9-0.6-1.2c-0.8-0.6-2-0.6-2.8,0C641,169,641,170.1,641.7,170.7z M642.3,170.3c-0.4-0.3-0.4-0.8-0.2-1.2l1.6,1.4
					C643.2,170.7,642.6,170.6,642.3,170.3L642.3,170.3z M644,168.8c0.2,0.2,0.4,0.4,0.4,0.7c0,0.2,0,0.3-0.1,0.5l-1.6-1.4
					c0.2-0.1,0.4-0.1,0.5-0.1C643.4,168.5,643.7,168.6,644,168.8L644,168.8z"/>
				<path id="XMLID_208_" class="st3" d="M641.3,165.9c0.1,0,0.2,0,0.3-0.1c0.1-0.1,0.1-0.1,0.1-0.2s0-0.2-0.1-0.2
					c-0.1-0.1-0.2-0.1-0.3-0.1c-0.1,0-0.2,0-0.3,0.1c-0.1,0.1-0.1,0.1-0.1,0.2s0,0.2,0.1,0.2C641.1,165.9,641.2,165.9,641.3,165.9z"
					/>
				<path id="XMLID_207_" class="st3" d="M642.5,165.9c0.1,0,0.2,0,0.3-0.1c0.1-0.1,0.1-0.1,0.1-0.2s0-0.2-0.1-0.2
					c-0.1-0.1-0.2-0.1-0.3-0.1s-0.2,0-0.3,0.1c-0.1,0.1-0.1,0.1-0.1,0.2s0,0.2,0.1,0.2C642.3,165.9,642.4,165.9,642.5,165.9z"/>
				<path id="XMLID_206_" class="st3" d="M643.7,165.9c0.1,0,0.2,0,0.3-0.1c0.1-0.1,0.1-0.1,0.1-0.2s0-0.2-0.1-0.2
					c-0.1-0.1-0.2-0.1-0.3-0.1c-0.1,0-0.2,0-0.3,0.1c-0.1,0.1-0.1,0.1-0.1,0.2s0,0.2,0.1,0.2S643.6,165.9,643.7,165.9z"/>
				<path id="XMLID_205_" class="st3" d="M644.9,165.9c0.1,0,0.2,0,0.3-0.1c0.1-0.1,0.1-0.1,0.1-0.2s0-0.2-0.1-0.2
					c-0.1-0.1-0.2-0.1-0.3-0.1s-0.2,0-0.3,0.1c-0.1,0.1-0.1,0.1-0.1,0.2s0,0.2,0.1,0.2C644.7,165.9,644.8,165.9,644.9,165.9z"/>
				<path id="XMLID_204_" class="st3" d="M641.3,165c0.1,0,0.2,0,0.3-0.1c0.1-0.1,0.1-0.1,0.1-0.2s0-0.2-0.1-0.2
					c-0.1-0.1-0.2-0.1-0.3-0.1c-0.1,0-0.2,0-0.3,0.1c-0.1,0.1-0.1,0.1-0.1,0.2c0,0.1,0,0.2,0.1,0.2C641.1,165,641.2,165,641.3,165z"
					/>
				<path id="XMLID_203_" class="st3" d="M642.5,165c0.1,0,0.2,0,0.3-0.1c0.1-0.1,0.1-0.1,0.1-0.2s0-0.2-0.1-0.2
					c-0.1-0.1-0.2-0.1-0.3-0.1s-0.2,0-0.3,0.1c-0.1,0.1-0.1,0.1-0.1,0.2c0,0.1,0,0.2,0.1,0.2C642.3,165,642.4,165,642.5,165z"/>
				<path id="XMLID_202_" class="st3" d="M643.7,165c0.1,0,0.2,0,0.3-0.1c0.1-0.1,0.1-0.1,0.1-0.2s0-0.2-0.1-0.2
					c-0.1-0.1-0.2-0.1-0.3-0.1c-0.1,0-0.2,0-0.3,0.1c-0.1,0.1-0.1,0.1-0.1,0.2c0,0.1,0,0.2,0.1,0.2C643.5,165,643.6,165,643.7,165z"
					/>
				<path id="XMLID_201_" class="st3" d="M644.9,165c0.1,0,0.2,0,0.3-0.1c0.1-0.1,0.1-0.1,0.1-0.2s0-0.2-0.1-0.2
					c-0.1-0.1-0.2-0.1-0.3-0.1c-0.1,0-0.2,0-0.3,0.1c-0.1,0.1-0.1,0.1-0.1,0.2c0,0.1,0,0.2,0.1,0.2C644.7,165,644.8,165,644.9,165z"
					/>
				<path id="XMLID_200_" class="st3" d="M641.3,166.9c0.1,0,0.2,0,0.3-0.1c0.1-0.1,0.1-0.1,0.1-0.2c0-0.1,0-0.2-0.1-0.2
					c-0.1-0.1-0.2-0.1-0.3-0.1c-0.1,0-0.2,0-0.3,0.1c-0.1,0.1-0.1,0.1-0.1,0.2s0,0.2,0.1,0.2S641.2,166.9,641.3,166.9z"/>
				<path id="XMLID_199_" class="st3" d="M642.5,166.9c0.1,0,0.2,0,0.3-0.1c0.1-0.1,0.1-0.1,0.1-0.2s0-0.2-0.1-0.2
					c-0.1-0.1-0.2-0.1-0.3-0.1s-0.2,0-0.3,0.1c-0.1,0.1-0.1,0.1-0.1,0.2s0,0.2,0.1,0.2C642.3,166.8,642.4,166.9,642.5,166.9z"/>
				<path id="XMLID_198_" class="st3" d="M643.7,166.9c0.1,0,0.2,0,0.3-0.1c0.1-0.1,0.1-0.1,0.1-0.2s0-0.2-0.1-0.2
					c-0.1-0.1-0.2-0.1-0.3-0.1c-0.1,0-0.2,0-0.3,0.1c-0.1,0.1-0.1,0.1-0.1,0.2s0,0.2,0.1,0.2S643.6,166.9,643.7,166.9z"/>
				<path id="XMLID_197_" class="st3" d="M644.9,166.9c0.1,0,0.2,0,0.3-0.1c0.1-0.1,0.1-0.1,0.1-0.2s0-0.2-0.1-0.2
					c-0.1-0.1-0.2-0.1-0.3-0.1c-0.1,0-0.2,0-0.3,0.1c-0.1,0.1-0.1,0.1-0.1,0.2s0,0.2,0.1,0.2C644.7,166.8,644.8,166.9,644.9,166.9z"
					/>
			</g>
			<path id="XMLID_196_" class="st3" d="M596.7,672.3c0,0.9-0.7,1.5-1.6,1.5c-0.9,0-1.6-0.7-1.6-1.5s0.7-1.5,1.6-1.5
				C596,670.8,596.7,671.4,596.7,672.3z"/>
			<path id="XMLID_195_" class="st3" d="M607.5,672.3c0,0.9-0.7,1.5-1.6,1.5c-0.9,0-1.6-0.7-1.6-1.5s0.7-1.5,1.6-1.5
				C606.8,670.8,607.5,671.4,607.5,672.3z"/>
			<path id="XMLID_194_" class="st3" d="M607.5,665.6v-6.2h-13c0-0.6-0.5-1-1.1-1h-3.3v1h2.2l0.8,6.6c-0.5,0.4-0.8,1-0.8,1.6
				c0,1.1,1,2.1,2.2,2.1h13v-1h-13c-0.6,0-1.1-0.5-1.1-1l0,0L607.5,665.6z"/>
		</g>
	</g>
	<g id="rayas" class="st1">
		<g id="Capa_30">
			<line id="XMLID_229_" class="st7" x1="778.7" y1="304.1" x2="787.8" y2="267"/>
		</g>
		<g id="Capa_31">
			<line id="XMLID_231_" class="st8" x1="804.6" y1="235.5" x2="863.1" y2="197.1"/>
		</g>
		<g id="Capa_32">
			<line id="XMLID_232_" class="st8" x1="809.2" y1="398.6" x2="965.5" y2="371.7"/>
			<line id="XMLID_233_" class="st8" x1="1037" y1="358.4" x2="1176" y2="308.8"/>
			<line id="XMLID_234_" class="st8" x1="1166.3" y1="202" x2="1199.6" y2="255.2"/>
			<line id="XMLID_235_" class="st8" x1="1246.3" y1="297.3" x2="1318.7" y2="333.6"/>
		</g>
		<g id="Capa_33">
			<line id="XMLID_188_" class="st8" x1="1237.1" y1="267" x2="1304" y2="221.1"/>
			<line id="XMLID_236_" class="st8" x1="1201.9" y1="330.7" x2="1189.6" y2="390"/>
		</g>
		<g id="Capa_34">
			<line id="XMLID_238_" class="st8" x1="812" y1="462.4" x2="956" y2="528.5"/>
			<line id="XMLID_239_" class="st8" x1="1023.7" y1="539.3" x2="1094.7" y2="497"/>
			<line id="XMLID_240_" class="st8" x1="1018.8" y1="568.9" x2="1148.9" y2="614.7"/>
			<line id="XMLID_241_" class="st8" x1="961.8" y1="577.3" x2="912.7" y2="629.1"/>
		</g>
		<g id="Capa_35">
			<line id="XMLID_96_" class="st9" x1="1008" y1="333.3" x2="1032.9" y2="277.8"/>
		</g>
		<g id="Capa_36">
			<line id="XMLID_242_" class="st10" x1="709.3" y1="313.1" x2="559.1" y2="279.2"/>
			<line id="XMLID_245_" class="st10" x1="548.9" y1="235.5" x2="610.5" y2="181.6"/>
			<line id="XMLID_246_" class="st10" x1="491.4" y1="248.8" x2="399.9" y2="216.3"/>
			<line id="XMLID_248_" class="st10" x1="359.4" y1="208.5" x2="294.7" y2="224.4"/>
			<line id="XMLID_249_" class="st10" x1="709.3" y1="398.6" x2="547.5" y2="404.3"/>
			<line id="XMLID_250_" class="st10" x1="424.5" y1="332.3" x2="483.4" y2="387.5"/>
			<line id="XMLID_251_" class="st10" x1="510.9" y1="451.5" x2="493.8" y2="499.6"/>
			<line id="XMLID_252_" class="st10" x1="711" y1="489.2" x2="564.9" y2="558.4"/>
			<line id="XMLID_253_" class="st10" x1="556" y1="603.2" x2="590.2" y2="651.5"/>
			<line id="XMLID_254_" class="st10" x1="615.5" y1="666.1" x2="668" y2="654.5"/>
		</g>
	</g>
	<g id="circulo" class="st1">
		<g id="circulos">
			<ellipse id="XMLID_88_" class="st11" cx="760.3" cy="389.8" rx="28.5" ry="28.3"/>
		</g>
		<g id="circulos_copia">
			<ellipse id="XMLID_98_" class="st11" cx="1209.3" cy="292.3" rx="36.9" ry="38.4"/>
			<ellipse id="XMLID_160_" class="st11" cx="531.4" cy="574.5" rx="36.9" ry="38.4"/>
			<ellipse id="XMLID_266_" class="st11" cx="510.9" cy="413.1" rx="36.9" ry="38.4"/>
			<ellipse id="XMLID_99_" class="st11" cx="524.6" cy="265.6" rx="36.9" ry="38.4"/>
			<ellipse id="XMLID_90_" class="st11" cx="1002.4" cy="371.7" rx="36.9" ry="38.4"/>
			<ellipse id="XMLID_97_" class="st11" cx="987" cy="549.2" rx="36.9" ry="38.4"/>
		</g>
		<g id="circulos_copia_2">
			<ellipse id="XMLID_93_" class="st8" cx="788.8" cy="247.2" rx="19.5" ry="19.8"/>
			<ellipse id="XMLID_61_" class="st8" cx="1172.4" cy="611.2" rx="23.8" ry="23.5"/>
			<ellipse id="XMLID_1_" class="st8" cx="1148.6" cy="186.3" rx="23.8" ry="23.5"/>
			<ellipse id="XMLID_62_" class="st8" cx="381.9" cy="200.9" rx="23.8" ry="23.5"/>
		</g>
		<g id="circulos_copia_3">
			<ellipse id="XMLID_94_" class="st8" cx="1039.3" cy="258.9" rx="18.2" ry="18.9"/>
			<ellipse id="XMLID_138_" class="st8" cx="884.7" cy="186.3" rx="24" ry="24.8"/>
			<ellipse id="XMLID_152_" class="st8" cx="632.1" cy="170.7" rx="24" ry="24.8"/>
		</g>
		<g id="Capa_10">
			<ellipse id="XMLID_244_" class="st8" cx="1111.3" cy="489.2" rx="16.6" ry="17.1"/>
			<ellipse id="XMLID_157_" class="st8" cx="598.9" cy="666.1" rx="16.6" ry="17.1"/>
			<ellipse id="XMLID_155_" class="st8" cx="404.6" cy="328.2" rx="19.9" ry="19.1"/>
			<ellipse id="XMLID_237_" class="st8" cx="1335.6" cy="339.2" rx="18.3" ry="19.1"/>
		</g>
	</g>
	<g id="puntos">
		<g id="Capa_37">
			<ellipse id="XMLID_255_" class="st12" cx="292.5" cy="225.7" rx="3.7" ry="3.6"/>
			<ellipse id="XMLID_257_" class="st12" cx="492.2" cy="499.6" rx="3.7" ry="3.6"/>
			<ellipse id="XMLID_258_" class="st12" cx="668" cy="654.5" rx="3.7" ry="3.6"/>
			<ellipse id="XMLID_260_" class="st12" cx="912.7" cy="629.1" rx="3.7" ry="3.6"/>
			<ellipse id="XMLID_261_" class="st12" cx="1189.6" cy="392" rx="3.7" ry="3.6"/>
			<ellipse id="XMLID_263_" class="st12" cx="1304" cy="221.1" rx="3.7" ry="3.6"/>
		</g>
	</g>
</g>
<g id="Capa_2">
	<rect x="263" y="257.1" class="st13" width="1121.9" height="305.8"/>
</g>
</svg>
