<?xml version="1.0" encoding="utf-8"?>
<!-- Generator: Adobe Illustrator 19.0.0, SVG Export Plug-In . SVG Version: 6.00 Build 0)  -->
<svg version="1.1" id="Capa_1" xmlns="http://www.w3.org/2000/svg" xmlns:xlink="http://www.w3.org/1999/xlink" x="0px" y="0px"
	 viewBox="0 0 595.3 74.5" style="enable-background:new 0 0 595.3 74.5;" xml:space="preserve">
<style type="text/css">
	.st0{fill:#FCFBFD;stroke:#FFFFFF;stroke-miterlimit:10;}
	.st1{fill:#FFFFFF;stroke:#FFFFFF;stroke-miterlimit:10;}
</style>
<path id="XMLID_15_" class="st0" d="M220.4,48.2H18.6c-2.3,0-4.1-1.9-4.1-4.1v0c0-2.3,1.9-4.1,4.1-4.1h201.8c2.3,0,4.1,1.9,4.1,4.1
	v0C224.5,46.3,222.6,48.2,220.4,48.2z"/>
<path id="XMLID_17_" class="st0" d="M570.4,48.2H368.6c-2.3,0-4.1-1.9-4.1-4.1v0c0-2.3,1.9-4.1,4.1-4.1h201.8c2.3,0,4.1,1.9,4.1,4.1
	v0C574.5,46.3,572.6,48.2,570.4,48.2z"/>
<ellipse id="XMLID_16_" class="st1" cx="296.6" cy="44.1" rx="7.6" ry="7.3"/>
</svg>
